M48
; DRILL file {KiCad (6.0.4)} date Fri Dec  9 13:12:34 2022
; FORMAT={-:-/ absolute / inch / decimal}
; #@! TF.CreationDate,2022-12-09T13:12:34+01:00
; #@! TF.GenerationSoftware,Kicad,Pcbnew,(6.0.4)
; #@! TF.FileFunction,Plated,1,2,PTH
FMAT,2
INCH
; #@! TA.AperFunction,Plated,PTH,ComponentDrill
T1C0.0276
; #@! TA.AperFunction,Plated,PTH,ViaDrill
T2C0.0315
; #@! TA.AperFunction,Plated,PTH,ComponentDrill
T3C0.0315
; #@! TA.AperFunction,Plated,PTH,ComponentDrill
T4C0.0394
%
G90
G05
T1
X2.165Y-2.3539
X2.165Y-2.6539
X2.465Y-2.3539
X2.465Y-2.6539
T2
X2.1375Y-2.85
X2.3375Y-2.85
X2.5354Y-3.0512
X2.5543Y-2.8543
X2.6651Y-2.3625
X2.675Y-3.6875
X2.6811Y-3.2953
X2.7Y-4.4375
X2.7087Y-3.4291
X2.7375Y-2.3875
X2.7559Y-3.0157
X2.7625Y-3.575
X2.7625Y-3.6625
X2.7638Y-3.4961
X2.775Y-2.45
X2.811Y-3.063
X2.8125Y-2.5375
X2.825Y-2.925
X2.8813Y-2.5563
X2.9488Y-2.5236
X2.95Y-3.35
X2.9625Y-3.275
X2.9646Y-2.5945
X2.9875Y-3.5
X2.9881Y-3.425
X2.9892Y-3.577
X2.9997Y-3.65
X3.0276Y-3.1024
X3.0375Y-4.2875
X3.0433Y-2.8583
X3.0472Y-2.5276
X3.05Y-3.3125
X3.0875Y-4.225
X3.0945Y-2.3425
X3.1142Y-3.937
X3.1221Y-4.2904
X3.126Y-3.3307
X3.15Y-2.7841
X3.189Y-3.9409
X3.1929Y-3.5039
X3.2205Y-2.4331
X3.2244Y-3.6417
X3.225Y-3.325
X3.2283Y-2.5118
X3.2323Y-2.748
X3.2668Y-3.9488
X3.2913Y-2.3661
X3.3071Y-3.6417
X3.311Y-3.5669
X3.311Y-4.0118
X3.325Y-3.075
X3.325Y-3.15
X3.3375Y-4.2375
X3.3625Y-3.275
X3.3858Y-2.3543
X3.3965Y-2.6432
X3.4Y-2.85
X3.4Y-2.925
X3.55Y-3.0443
X3.5626Y-2.6376
X3.5787Y-2.4409
X3.5932Y-3.1625
X3.6Y-2.5125
X3.626Y-3.2402
X3.6299Y-3.3858
X3.6339Y-2.3875
X3.6563Y-3.3115
X3.6875Y-3.1378
X3.6875Y-4.4
X3.6929Y-2.4331
X3.6945Y-3.4644
X3.7Y-3.625
X3.7125Y-2.8875
X3.7126Y-3.0709
X3.7244Y-3.2795
X3.725Y-3.4
X3.7403Y-3.8875
X3.75Y-4.45
X3.7715Y-3.5589
X3.775Y-2.725
X3.775Y-4.125
X3.7835Y-3.0472
X3.7875Y-3.1875
X3.825Y-3.825
X3.8255Y-3.6043
X3.8258Y-2.6125
X3.875Y-3.5534
X3.875Y-3.875
X3.8758Y-2.6625
X3.925Y-3.925
X3.9252Y-3.6024
X3.9258Y-2.7125
X3.975Y-3.975
X3.9758Y-2.7625
X3.9807Y-3.55
X4.0125Y-2.475
X4.025Y-3.6125
X4.025Y-4.025
X4.0258Y-2.8125
X4.075Y-3.5501
X4.075Y-4.075
X4.0758Y-2.8625
X4.125Y-3.6125
X4.125Y-4.125
X4.1258Y-2.9125
X4.1693Y-3.55
X4.175Y-4.175
X4.1758Y-2.9625
X4.225Y-3.4625
X4.225Y-3.7125
X4.2258Y-2.475
X4.2748Y-3.6533
X4.2749Y-3.5124
X4.2758Y-2.425
X4.2875Y-2.25
X4.325Y-3.4375
X4.3254Y-3.5966
X4.3258Y-2.375
X4.375Y-3.3443
X4.375Y-3.5375
X4.3758Y-2.325
X4.425Y-3.3932
X4.425Y-3.4875
X4.4258Y-2.275
X4.475Y-3.2125
X4.4751Y-3.534
X4.4759Y-2.3215
X4.525Y-3.4875
X4.5258Y-2.275
X4.5307Y-3.284
X4.575Y-3.3375
X4.5751Y-3.5375
X4.5759Y-2.325
X4.625Y-2.275
X4.625Y-2.9875
X4.625Y-3.3875
X4.6375Y-4.1625
X4.6437Y-2.3875
X4.65Y-3.625
X4.675Y-2.875
X4.675Y-3.3125
X4.675Y-3.4875
X4.725Y-2.9875
X4.725Y-4.0
T3
X2.8375Y-3.175
X2.8375Y-3.275
X2.8375Y-3.375
X2.8375Y-3.475
X2.8375Y-3.575
X2.8375Y-3.675
X2.8375Y-3.775
X2.8375Y-3.875
X2.8375Y-3.975
X2.8375Y-4.075
X2.8375Y-4.175
X2.8375Y-4.275
X3.4375Y-3.175
X3.4375Y-3.275
X3.4375Y-3.375
X3.4375Y-3.475
X3.4375Y-3.575
X3.4375Y-3.675
X3.4375Y-3.775
X3.4375Y-3.875
X3.4375Y-3.975
X3.4375Y-4.075
X3.4375Y-4.175
X3.4375Y-4.275
T4
X2.075Y-3.475
X2.075Y-3.575
X2.075Y-3.675
X2.075Y-3.775
X2.075Y-3.875
X2.075Y-3.975
X2.075Y-4.075
X2.075Y-4.175
X2.075Y-4.275
X2.075Y-4.375
X2.175Y-3.475
X2.175Y-3.575
X2.175Y-3.675
X2.175Y-3.775
X2.175Y-3.875
X2.175Y-3.975
X2.175Y-4.075
X2.175Y-4.175
X2.175Y-4.275
X2.175Y-4.375
X2.2377Y-3.0454
X2.2377Y-3.1454
X2.275Y-3.475
X2.275Y-3.575
X2.275Y-3.675
X2.275Y-3.775
X2.275Y-3.875
X2.275Y-3.975
X2.275Y-4.075
X2.275Y-4.175
X2.275Y-4.275
X2.275Y-4.375
X2.3377Y-3.0454
X2.3377Y-3.1454
X2.375Y-3.475
X2.375Y-3.575
X2.375Y-3.675
X2.375Y-3.775
X2.375Y-3.875
X2.375Y-3.975
X2.375Y-4.075
X2.375Y-4.175
X2.375Y-4.275
X2.375Y-4.375
X2.4377Y-3.0454
X2.4377Y-3.1454
X2.475Y-3.475
X2.475Y-3.575
X2.475Y-3.675
X2.475Y-3.775
X2.475Y-3.875
X2.475Y-3.975
X2.475Y-4.075
X2.475Y-4.175
X2.475Y-4.275
X2.475Y-4.375
X2.575Y-3.475
X2.575Y-3.575
X2.575Y-3.675
X2.575Y-3.775
X2.575Y-3.875
X2.575Y-3.975
X2.575Y-4.075
X2.575Y-4.175
X2.575Y-4.275
X2.575Y-4.375
X2.7244Y-2.2875
X2.7375Y-3.775
X2.7375Y-3.875
X2.7375Y-3.975
X2.7375Y-4.075
X2.7375Y-4.175
X2.7375Y-4.275
X2.8244Y-2.2875
X2.9244Y-2.2875
X3.0244Y-2.2875
X3.1244Y-2.2875
X3.2244Y-2.2875
X3.3244Y-2.2875
X3.4244Y-2.2875
X3.5375Y-3.875
X3.5375Y-3.975
X3.5375Y-4.075
X3.5375Y-4.175
X3.5375Y-4.275
X3.7375Y-2.65
X3.875Y-4.2546
X3.875Y-4.3546
X3.975Y-4.2546
X3.975Y-4.3546
X4.075Y-4.2546
X4.075Y-4.3546
X4.175Y-4.2546
X4.175Y-4.3546
X4.275Y-4.2546
X4.275Y-4.3546
X4.375Y-4.2546
X4.375Y-4.3546
X4.475Y-4.2546
X4.475Y-4.3546
X4.575Y-4.2546
X4.575Y-4.3546
T0
M30
