%TF.GenerationSoftware,KiCad,Pcbnew,(6.0.4)*%
%TF.CreationDate,2022-12-09T13:12:30+01:00*%
%TF.ProjectId,SmartArtificialSoftTissue_Standard_v2,536d6172-7441-4727-9469-66696369616c,rev?*%
%TF.SameCoordinates,Original*%
%TF.FileFunction,Soldermask,Bot*%
%TF.FilePolarity,Negative*%
%FSLAX46Y46*%
G04 Gerber Fmt 4.6, Leading zero omitted, Abs format (unit mm)*
G04 Created by KiCad (PCBNEW (6.0.4)) date 2022-12-09 13:12:30*
%MOMM*%
%LPD*%
G01*
G04 APERTURE LIST*
G04 Aperture macros list*
%AMRoundRect*
0 Rectangle with rounded corners*
0 $1 Rounding radius*
0 $2 $3 $4 $5 $6 $7 $8 $9 X,Y pos of 4 corners*
0 Add a 4 corners polygon primitive as box body*
4,1,4,$2,$3,$4,$5,$6,$7,$8,$9,$2,$3,0*
0 Add four circle primitives for the rounded corners*
1,1,$1+$1,$2,$3*
1,1,$1+$1,$4,$5*
1,1,$1+$1,$6,$7*
1,1,$1+$1,$8,$9*
0 Add four rect primitives between the rounded corners*
20,1,$1+$1,$2,$3,$4,$5,0*
20,1,$1+$1,$4,$5,$6,$7,0*
20,1,$1+$1,$6,$7,$8,$9,0*
20,1,$1+$1,$8,$9,$2,$3,0*%
G04 Aperture macros list end*
%ADD10R,1.700000X1.700000*%
%ADD11O,1.700000X1.700000*%
%ADD12RoundRect,0.250000X-0.600000X0.600000X-0.600000X-0.600000X0.600000X-0.600000X0.600000X0.600000X0*%
%ADD13C,1.700000*%
%ADD14RoundRect,0.250000X0.600000X-0.600000X0.600000X0.600000X-0.600000X0.600000X-0.600000X-0.600000X0*%
%ADD15R,1.600000X1.600000*%
%ADD16O,1.600000X1.600000*%
%ADD17C,2.000000*%
%ADD18R,1.200000X1.200000*%
%ADD19C,1.200000*%
G04 APERTURE END LIST*
D10*
%TO.C,REF\u002A\u002A*%
X62865000Y-88265000D03*
D11*
X62865000Y-90805000D03*
X62865000Y-93345000D03*
X62865000Y-95885000D03*
X62865000Y-98425000D03*
X62865000Y-100965000D03*
X62865000Y-103505000D03*
X62865000Y-106045000D03*
X62865000Y-108585000D03*
X62865000Y-111125000D03*
%TD*%
D10*
%TO.C,REF\u002A\u002A*%
X65405000Y-88265000D03*
D11*
X65405000Y-90805000D03*
X65405000Y-93345000D03*
X65405000Y-95885000D03*
X65405000Y-98425000D03*
X65405000Y-100965000D03*
X65405000Y-103505000D03*
X65405000Y-106045000D03*
X65405000Y-108585000D03*
X65405000Y-111125000D03*
%TD*%
D12*
%TO.C,CON2*%
X61917500Y-77352500D03*
D13*
X61917500Y-79892500D03*
X59377500Y-77352500D03*
X59377500Y-79892500D03*
X56837500Y-77352500D03*
X56837500Y-79892500D03*
%TD*%
D10*
%TO.C,REF\u002A\u002A*%
X60325000Y-88265000D03*
D11*
X60325000Y-90805000D03*
X60325000Y-93345000D03*
X60325000Y-95885000D03*
X60325000Y-98425000D03*
X60325000Y-100965000D03*
X60325000Y-103505000D03*
X60325000Y-106045000D03*
X60325000Y-108585000D03*
X60325000Y-111125000D03*
%TD*%
D10*
%TO.C,REF\u002A\u002A*%
X52705000Y-88265000D03*
D11*
X52705000Y-90805000D03*
X52705000Y-93345000D03*
X52705000Y-95885000D03*
X52705000Y-98425000D03*
X52705000Y-100965000D03*
X52705000Y-103505000D03*
X52705000Y-106045000D03*
X52705000Y-108585000D03*
X52705000Y-111125000D03*
%TD*%
D14*
%TO.C,CON1*%
X98425000Y-110607500D03*
D13*
X98425000Y-108067500D03*
X100965000Y-110607500D03*
X100965000Y-108067500D03*
X103505000Y-110607500D03*
X103505000Y-108067500D03*
X106045000Y-110607500D03*
X106045000Y-108067500D03*
X108585000Y-110607500D03*
X108585000Y-108067500D03*
X111125000Y-110607500D03*
X111125000Y-108067500D03*
X113665000Y-110607500D03*
X113665000Y-108067500D03*
X116205000Y-110607500D03*
X116205000Y-108067500D03*
%TD*%
D10*
%TO.C,REF\u002A\u002A*%
X57785000Y-88265000D03*
D11*
X57785000Y-90805000D03*
X57785000Y-93345000D03*
X57785000Y-95885000D03*
X57785000Y-98425000D03*
X57785000Y-100965000D03*
X57785000Y-103505000D03*
X57785000Y-106045000D03*
X57785000Y-108585000D03*
X57785000Y-111125000D03*
%TD*%
D10*
%TO.C,REF\u002A\u002A*%
X55245000Y-88265000D03*
D11*
X55245000Y-90805000D03*
X55245000Y-93345000D03*
X55245000Y-95885000D03*
X55245000Y-98425000D03*
X55245000Y-100965000D03*
X55245000Y-103505000D03*
X55245000Y-106045000D03*
X55245000Y-108585000D03*
X55245000Y-111125000D03*
%TD*%
D15*
%TO.C,UC1*%
X72072500Y-80645000D03*
D16*
X72072500Y-83185000D03*
X72072500Y-85725000D03*
X72072500Y-88265000D03*
X72072500Y-90805000D03*
X72072500Y-93345000D03*
X72072500Y-95885000D03*
X72072500Y-98425000D03*
X72072500Y-100965000D03*
X72072500Y-103505000D03*
X72072500Y-106045000D03*
X72072500Y-108585000D03*
X87312500Y-108585000D03*
X87312500Y-106045000D03*
X87312500Y-103505000D03*
X87312500Y-100965000D03*
X87312500Y-98425000D03*
X87312500Y-95885000D03*
X87312500Y-93345000D03*
X87312500Y-90805000D03*
X87312500Y-88265000D03*
X87312500Y-85725000D03*
X87312500Y-83185000D03*
X87312500Y-80645000D03*
%TD*%
D17*
%TO.C,Needle1*%
X94932500Y-67310000D03*
%TD*%
D18*
%TO.C,Y1*%
X54990000Y-59790000D03*
D19*
X54990000Y-67410000D03*
X62610000Y-67410000D03*
X62610000Y-59790000D03*
%TD*%
D10*
%TO.C,CON3*%
X86980000Y-58102500D03*
D11*
X84440000Y-58102500D03*
X81900000Y-58102500D03*
X79360000Y-58102500D03*
X76820000Y-58102500D03*
X74280000Y-58102500D03*
X71740000Y-58102500D03*
X69200000Y-58102500D03*
%TD*%
D10*
%TO.C,J11*%
X69532500Y-95885000D03*
D11*
X69532500Y-98425000D03*
X69532500Y-100965000D03*
X69532500Y-103505000D03*
X69532500Y-106045000D03*
X69532500Y-108585000D03*
%TD*%
D10*
%TO.C,J12*%
X89852500Y-98425000D03*
D11*
X89852500Y-100965000D03*
X89852500Y-103505000D03*
X89852500Y-106045000D03*
X89852500Y-108585000D03*
%TD*%
M02*
