%TF.GenerationSoftware,KiCad,Pcbnew,(6.0.4)*%
%TF.CreationDate,2022-12-09T13:12:30+01:00*%
%TF.ProjectId,SmartArtificialSoftTissue_Standard_v2,536d6172-7441-4727-9469-66696369616c,rev?*%
%TF.SameCoordinates,Original*%
%TF.FileFunction,Copper,L1,Top*%
%TF.FilePolarity,Positive*%
%FSLAX46Y46*%
G04 Gerber Fmt 4.6, Leading zero omitted, Abs format (unit mm)*
G04 Created by KiCad (PCBNEW (6.0.4)) date 2022-12-09 13:12:30*
%MOMM*%
%LPD*%
G01*
G04 APERTURE LIST*
G04 Aperture macros list*
%AMRoundRect*
0 Rectangle with rounded corners*
0 $1 Rounding radius*
0 $2 $3 $4 $5 $6 $7 $8 $9 X,Y pos of 4 corners*
0 Add a 4 corners polygon primitive as box body*
4,1,4,$2,$3,$4,$5,$6,$7,$8,$9,$2,$3,0*
0 Add four circle primitives for the rounded corners*
1,1,$1+$1,$2,$3*
1,1,$1+$1,$4,$5*
1,1,$1+$1,$6,$7*
1,1,$1+$1,$8,$9*
0 Add four rect primitives between the rounded corners*
20,1,$1+$1,$2,$3,$4,$5,0*
20,1,$1+$1,$4,$5,$6,$7,0*
20,1,$1+$1,$6,$7,$8,$9,0*
20,1,$1+$1,$8,$9,$2,$3,0*%
G04 Aperture macros list end*
%TA.AperFunction,SMDPad,CuDef*%
%ADD10RoundRect,0.250000X-0.337500X-0.475000X0.337500X-0.475000X0.337500X0.475000X-0.337500X0.475000X0*%
%TD*%
%TA.AperFunction,SMDPad,CuDef*%
%ADD11RoundRect,0.160000X-0.252791X0.026517X0.026517X-0.252791X0.252791X-0.026517X-0.026517X0.252791X0*%
%TD*%
%TA.AperFunction,SMDPad,CuDef*%
%ADD12RoundRect,0.160000X-0.197500X-0.160000X0.197500X-0.160000X0.197500X0.160000X-0.197500X0.160000X0*%
%TD*%
%TA.AperFunction,ComponentPad*%
%ADD13R,1.700000X1.700000*%
%TD*%
%TA.AperFunction,ComponentPad*%
%ADD14O,1.700000X1.700000*%
%TD*%
%TA.AperFunction,SMDPad,CuDef*%
%ADD15RoundRect,0.250000X0.475000X-0.337500X0.475000X0.337500X-0.475000X0.337500X-0.475000X-0.337500X0*%
%TD*%
%TA.AperFunction,SMDPad,CuDef*%
%ADD16RoundRect,0.250000X0.337500X0.475000X-0.337500X0.475000X-0.337500X-0.475000X0.337500X-0.475000X0*%
%TD*%
%TA.AperFunction,SMDPad,CuDef*%
%ADD17RoundRect,0.160000X0.160000X-0.197500X0.160000X0.197500X-0.160000X0.197500X-0.160000X-0.197500X0*%
%TD*%
%TA.AperFunction,SMDPad,CuDef*%
%ADD18RoundRect,0.160000X-0.160000X0.197500X-0.160000X-0.197500X0.160000X-0.197500X0.160000X0.197500X0*%
%TD*%
%TA.AperFunction,SMDPad,CuDef*%
%ADD19RoundRect,0.155000X-0.155000X0.212500X-0.155000X-0.212500X0.155000X-0.212500X0.155000X0.212500X0*%
%TD*%
%TA.AperFunction,SMDPad,CuDef*%
%ADD20RoundRect,0.155000X-0.212500X-0.155000X0.212500X-0.155000X0.212500X0.155000X-0.212500X0.155000X0*%
%TD*%
%TA.AperFunction,SMDPad,CuDef*%
%ADD21RoundRect,0.160000X0.197500X0.160000X-0.197500X0.160000X-0.197500X-0.160000X0.197500X-0.160000X0*%
%TD*%
%TA.AperFunction,ComponentPad*%
%ADD22RoundRect,0.250000X-0.600000X0.600000X-0.600000X-0.600000X0.600000X-0.600000X0.600000X0.600000X0*%
%TD*%
%TA.AperFunction,ComponentPad*%
%ADD23C,1.700000*%
%TD*%
%TA.AperFunction,SMDPad,CuDef*%
%ADD24RoundRect,0.250000X0.750000X-0.250000X0.750000X0.250000X-0.750000X0.250000X-0.750000X-0.250000X0*%
%TD*%
%TA.AperFunction,ComponentPad*%
%ADD25RoundRect,0.250000X0.600000X-0.600000X0.600000X0.600000X-0.600000X0.600000X-0.600000X-0.600000X0*%
%TD*%
%TA.AperFunction,SMDPad,CuDef*%
%ADD26RoundRect,0.250000X-0.450000X0.325000X-0.450000X-0.325000X0.450000X-0.325000X0.450000X0.325000X0*%
%TD*%
%TA.AperFunction,SMDPad,CuDef*%
%ADD27R,1.800000X0.450000*%
%TD*%
%TA.AperFunction,SMDPad,CuDef*%
%ADD28RoundRect,0.155000X0.155000X-0.212500X0.155000X0.212500X-0.155000X0.212500X-0.155000X-0.212500X0*%
%TD*%
%TA.AperFunction,ComponentPad*%
%ADD29R,1.600000X1.600000*%
%TD*%
%TA.AperFunction,ComponentPad*%
%ADD30O,1.600000X1.600000*%
%TD*%
%TA.AperFunction,SMDPad,CuDef*%
%ADD31R,0.355600X1.473200*%
%TD*%
%TA.AperFunction,ComponentPad*%
%ADD32C,2.000000*%
%TD*%
%TA.AperFunction,ComponentPad*%
%ADD33R,1.200000X1.200000*%
%TD*%
%TA.AperFunction,ComponentPad*%
%ADD34C,1.200000*%
%TD*%
%TA.AperFunction,SMDPad,CuDef*%
%ADD35R,1.473200X0.355600*%
%TD*%
%TA.AperFunction,SMDPad,CuDef*%
%ADD36R,0.431800X1.524000*%
%TD*%
%TA.AperFunction,SMDPad,CuDef*%
%ADD37RoundRect,0.250000X-0.475000X0.337500X-0.475000X-0.337500X0.475000X-0.337500X0.475000X0.337500X0*%
%TD*%
%TA.AperFunction,SMDPad,CuDef*%
%ADD38RoundRect,0.155000X0.212500X0.155000X-0.212500X0.155000X-0.212500X-0.155000X0.212500X-0.155000X0*%
%TD*%
%TA.AperFunction,SMDPad,CuDef*%
%ADD39R,0.450000X1.750000*%
%TD*%
%TA.AperFunction,SMDPad,CuDef*%
%ADD40R,1.524000X0.431800*%
%TD*%
%TA.AperFunction,ViaPad*%
%ADD41C,1.400000*%
%TD*%
%TA.AperFunction,Conductor*%
%ADD42C,0.250000*%
%TD*%
%TA.AperFunction,Conductor*%
%ADD43C,0.600000*%
%TD*%
%TA.AperFunction,Conductor*%
%ADD44C,0.400000*%
%TD*%
%TA.AperFunction,Conductor*%
%ADD45C,0.800000*%
%TD*%
G04 APERTURE END LIST*
D10*
%TO.P,C8,1*%
%TO.N,VCC_5V*%
X60875000Y-72390000D03*
%TO.P,C8,2*%
%TO.N,GND*%
X62950000Y-72390000D03*
%TD*%
D11*
%TO.P,R42,1*%
%TO.N,GND*%
X74190004Y-91970004D03*
%TO.P,R42,2*%
%TO.N,/M2_A3*%
X75034996Y-92814996D03*
%TD*%
D12*
%TO.P,R23,1*%
%TO.N,VCC_5V*%
X68602500Y-66000000D03*
%TO.P,R23,2*%
%TO.N,Net-(IOEX1-Pad18)*%
X69797500Y-66000000D03*
%TD*%
D13*
%TO.P,REF\u002A\u002A,1*%
%TO.N,N/C*%
X62865000Y-88265000D03*
D14*
%TO.P,REF\u002A\u002A,2*%
X62865000Y-90805000D03*
%TO.P,REF\u002A\u002A,3*%
X62865000Y-93345000D03*
%TO.P,REF\u002A\u002A,4*%
X62865000Y-95885000D03*
%TO.P,REF\u002A\u002A,5*%
X62865000Y-98425000D03*
%TO.P,REF\u002A\u002A,6*%
X62865000Y-100965000D03*
%TO.P,REF\u002A\u002A,7*%
X62865000Y-103505000D03*
%TO.P,REF\u002A\u002A,8*%
X62865000Y-106045000D03*
%TO.P,REF\u002A\u002A,9*%
X62865000Y-108585000D03*
%TO.P,REF\u002A\u002A,10*%
X62865000Y-111125000D03*
%TD*%
D12*
%TO.P,R52,1*%
%TO.N,/LED_blue*%
X95287500Y-61595000D03*
%TO.P,R52,2*%
%TO.N,Net-(D4-Pad2)*%
X96482500Y-61595000D03*
%TD*%
D15*
%TO.P,C21,1*%
%TO.N,VCC_5V*%
X119697500Y-59690000D03*
%TO.P,C21,2*%
%TO.N,VCC{slash}2*%
X119697500Y-57615000D03*
%TD*%
D16*
%TO.P,C18,1*%
%TO.N,GND*%
X69617500Y-80010000D03*
%TO.P,C18,2*%
%TO.N,VCC_5V*%
X67542500Y-80010000D03*
%TD*%
D17*
%TO.P,R33,1*%
%TO.N,/AS_3*%
X85725000Y-62510000D03*
%TO.P,R33,2*%
%TO.N,GND*%
X85725000Y-61315000D03*
%TD*%
D13*
%TO.P,REF\u002A\u002A,1*%
%TO.N,N/C*%
X65405000Y-88265000D03*
D14*
%TO.P,REF\u002A\u002A,2*%
X65405000Y-90805000D03*
%TO.P,REF\u002A\u002A,3*%
X65405000Y-93345000D03*
%TO.P,REF\u002A\u002A,4*%
X65405000Y-95885000D03*
%TO.P,REF\u002A\u002A,5*%
X65405000Y-98425000D03*
%TO.P,REF\u002A\u002A,6*%
X65405000Y-100965000D03*
%TO.P,REF\u002A\u002A,7*%
X65405000Y-103505000D03*
%TO.P,REF\u002A\u002A,8*%
X65405000Y-106045000D03*
%TO.P,REF\u002A\u002A,9*%
X65405000Y-108585000D03*
%TO.P,REF\u002A\u002A,10*%
X65405000Y-111125000D03*
%TD*%
D18*
%TO.P,J14,1*%
%TO.N,/SIG_OUT*%
X118999000Y-70395500D03*
%TO.P,J14,2*%
%TO.N,Net-(J8-Pad2)*%
X118999000Y-71590500D03*
%TD*%
D19*
%TO.P,C9,1*%
%TO.N,VCC_5V*%
X68647500Y-70235000D03*
%TO.P,C9,2*%
%TO.N,GND*%
X68647500Y-71370000D03*
%TD*%
D20*
%TO.P,C14,1*%
%TO.N,VCC_5V*%
X117927500Y-74930000D03*
%TO.P,C14,2*%
%TO.N,GND*%
X119062500Y-74930000D03*
%TD*%
D18*
%TO.P,R61,1*%
%TO.N,VCC{slash}2*%
X118427500Y-58177500D03*
%TO.P,R61,2*%
%TO.N,VCC_5V*%
X118427500Y-59372500D03*
%TD*%
D17*
%TO.P,R15,1*%
%TO.N,GND*%
X73300000Y-71697500D03*
%TO.P,R15,2*%
%TO.N,Net-(IOEX1-Pad17)*%
X73300000Y-70502500D03*
%TD*%
D12*
%TO.P,R51,1*%
%TO.N,/LED_green*%
X95287500Y-60325000D03*
%TO.P,R51,2*%
%TO.N,Net-(D3-Pad2)*%
X96482500Y-60325000D03*
%TD*%
D21*
%TO.P,R58,1*%
%TO.N,Net-(C17-Pad2)*%
X78897500Y-80502500D03*
%TO.P,R58,2*%
%TO.N,VCC_5V*%
X77702500Y-80502500D03*
%TD*%
D18*
%TO.P,R6,1*%
%TO.N,VCC_5V*%
X84100000Y-87502500D03*
%TO.P,R6,2*%
%TO.N,Net-(IOEX2-Pad18)*%
X84100000Y-88697500D03*
%TD*%
D10*
%TO.P,C17,1*%
%TO.N,Net-(C17-Pad1)*%
X80645000Y-80010000D03*
%TO.P,C17,2*%
%TO.N,Net-(C17-Pad2)*%
X82720000Y-80010000D03*
%TD*%
D22*
%TO.P,CON2,1,Pin_1*%
%TO.N,SDA*%
X61917500Y-77352500D03*
D23*
%TO.P,CON2,2,Pin_2*%
%TO.N,SCL*%
X61917500Y-79892500D03*
%TO.P,CON2,3,Pin_3*%
%TO.N,VCC_5V*%
X59377500Y-77352500D03*
%TO.P,CON2,4,Pin_4*%
%TO.N,GND*%
X59377500Y-79892500D03*
%TO.P,CON2,5,Pin_5*%
%TO.N,unconnected-(CON2-Pad5)*%
X56837500Y-77352500D03*
%TO.P,CON2,6,Pin_6*%
%TO.N,unconnected-(CON2-Pad6)*%
X56837500Y-79892500D03*
%TD*%
D21*
%TO.P,R36,1*%
%TO.N,GND*%
X78385000Y-82550000D03*
%TO.P,R36,2*%
%TO.N,/M1_A1*%
X77190000Y-82550000D03*
%TD*%
D24*
%TO.P,J13,1,Pin_1*%
%TO.N,VCC{slash}2*%
X90170000Y-96270000D03*
%TD*%
D13*
%TO.P,REF\u002A\u002A,1*%
%TO.N,N/C*%
X60325000Y-88265000D03*
D14*
%TO.P,REF\u002A\u002A,2*%
X60325000Y-90805000D03*
%TO.P,REF\u002A\u002A,3*%
X60325000Y-93345000D03*
%TO.P,REF\u002A\u002A,4*%
X60325000Y-95885000D03*
%TO.P,REF\u002A\u002A,5*%
X60325000Y-98425000D03*
%TO.P,REF\u002A\u002A,6*%
X60325000Y-100965000D03*
%TO.P,REF\u002A\u002A,7*%
X60325000Y-103505000D03*
%TO.P,REF\u002A\u002A,8*%
X60325000Y-106045000D03*
%TO.P,REF\u002A\u002A,9*%
X60325000Y-108585000D03*
%TO.P,REF\u002A\u002A,10*%
X60325000Y-111125000D03*
%TD*%
D16*
%TO.P,C22,1*%
%TO.N,VCC{slash}2*%
X105495000Y-63182500D03*
%TO.P,C22,2*%
%TO.N,GND*%
X103420000Y-63182500D03*
%TD*%
D12*
%TO.P,R39,1*%
%TO.N,GND*%
X73697500Y-86677500D03*
%TO.P,R39,2*%
%TO.N,/M2_A0*%
X74892500Y-86677500D03*
%TD*%
D17*
%TO.P,J3,1*%
%TO.N,/AS1_S3*%
X90170000Y-72352500D03*
%TO.P,J3,2*%
%TO.N,/AS1_D3*%
X90170000Y-71157500D03*
%TD*%
D18*
%TO.P,R5,1*%
%TO.N,VCC_5V*%
X81597500Y-86080000D03*
%TO.P,R5,2*%
%TO.N,Net-(IOEX2-Pad16)*%
X81597500Y-87275000D03*
%TD*%
D16*
%TO.P,C24,1*%
%TO.N,VCC_5V*%
X57870000Y-72390000D03*
%TO.P,C24,2*%
%TO.N,GND*%
X55795000Y-72390000D03*
%TD*%
D18*
%TO.P,R38,1*%
%TO.N,GND*%
X73977500Y-81317500D03*
%TO.P,R38,2*%
%TO.N,/M1_A3*%
X73977500Y-82512500D03*
%TD*%
D17*
%TO.P,R56,1*%
%TO.N,VCC_5V*%
X68580000Y-64415000D03*
%TO.P,R56,2*%
%TO.N,SCL*%
X68580000Y-63220000D03*
%TD*%
D13*
%TO.P,REF\u002A\u002A,1*%
%TO.N,N/C*%
X52705000Y-88265000D03*
D14*
%TO.P,REF\u002A\u002A,2*%
X52705000Y-90805000D03*
%TO.P,REF\u002A\u002A,3*%
X52705000Y-93345000D03*
%TO.P,REF\u002A\u002A,4*%
X52705000Y-95885000D03*
%TO.P,REF\u002A\u002A,5*%
X52705000Y-98425000D03*
%TO.P,REF\u002A\u002A,6*%
X52705000Y-100965000D03*
%TO.P,REF\u002A\u002A,7*%
X52705000Y-103505000D03*
%TO.P,REF\u002A\u002A,8*%
X52705000Y-106045000D03*
%TO.P,REF\u002A\u002A,9*%
X52705000Y-108585000D03*
%TO.P,REF\u002A\u002A,10*%
X52705000Y-111125000D03*
%TD*%
D12*
%TO.P,R43,1*%
%TO.N,GND*%
X105765000Y-96837500D03*
%TO.P,R43,2*%
%TO.N,/M3_A0*%
X106960000Y-96837500D03*
%TD*%
D18*
%TO.P,R48,1*%
%TO.N,GND*%
X96300000Y-82905000D03*
%TO.P,R48,2*%
%TO.N,/M2_EN*%
X96300000Y-84100000D03*
%TD*%
D17*
%TO.P,R64,1*%
%TO.N,Net-(OPA1-Pad2)*%
X110807500Y-78067500D03*
%TO.P,R64,2*%
%TO.N,Net-(J8-Pad2)*%
X110807500Y-76872500D03*
%TD*%
D12*
%TO.P,R40,1*%
%TO.N,GND*%
X73697500Y-88582500D03*
%TO.P,R40,2*%
%TO.N,/M2_A1*%
X74892500Y-88582500D03*
%TD*%
D21*
%TO.P,R65,1*%
%TO.N,Net-(OPA1-Pad7)*%
X112357500Y-80327500D03*
%TO.P,R65,2*%
%TO.N,/AS1_S1*%
X111162500Y-80327500D03*
%TD*%
D12*
%TO.P,R19,1*%
%TO.N,VCC_5V*%
X68607500Y-67400000D03*
%TO.P,R19,2*%
%TO.N,Net-(IOEX1-Pad17)*%
X69802500Y-67400000D03*
%TD*%
D25*
%TO.P,CON1,1,Pin_1*%
%TO.N,Net-(CON1-Pad1)*%
X98425000Y-110607500D03*
D23*
%TO.P,CON1,2,Pin_2*%
%TO.N,Net-(CON1-Pad2)*%
X98425000Y-108067500D03*
%TO.P,CON1,3,Pin_3*%
%TO.N,Net-(CON1-Pad3)*%
X100965000Y-110607500D03*
%TO.P,CON1,4,Pin_4*%
%TO.N,Net-(CON1-Pad4)*%
X100965000Y-108067500D03*
%TO.P,CON1,5,Pin_5*%
%TO.N,Net-(CON1-Pad5)*%
X103505000Y-110607500D03*
%TO.P,CON1,6,Pin_6*%
%TO.N,Net-(CON1-Pad6)*%
X103505000Y-108067500D03*
%TO.P,CON1,7,Pin_7*%
%TO.N,Net-(CON1-Pad7)*%
X106045000Y-110607500D03*
%TO.P,CON1,8,Pin_8*%
%TO.N,Net-(CON1-Pad8)*%
X106045000Y-108067500D03*
%TO.P,CON1,9,Pin_9*%
%TO.N,Net-(CON1-Pad9)*%
X108585000Y-110607500D03*
%TO.P,CON1,10,Pin_10*%
%TO.N,Net-(CON1-Pad10)*%
X108585000Y-108067500D03*
%TO.P,CON1,11,Pin_11*%
%TO.N,Net-(CON1-Pad11)*%
X111125000Y-110607500D03*
%TO.P,CON1,12,Pin_12*%
%TO.N,Net-(CON1-Pad12)*%
X111125000Y-108067500D03*
%TO.P,CON1,13,Pin_13*%
%TO.N,Net-(CON1-Pad13)*%
X113665000Y-110607500D03*
%TO.P,CON1,14,Pin_14*%
%TO.N,Net-(CON1-Pad14)*%
X113665000Y-108067500D03*
%TO.P,CON1,15,Pin_15*%
%TO.N,Net-(CON1-Pad15)*%
X116205000Y-110607500D03*
%TO.P,CON1,16,Pin_16*%
%TO.N,Net-(CON1-Pad16)*%
X116205000Y-108067500D03*
%TD*%
D16*
%TO.P,C19,1*%
%TO.N,GND*%
X69537500Y-81600000D03*
%TO.P,C19,2*%
%TO.N,VCC_5V*%
X67462500Y-81600000D03*
%TD*%
D13*
%TO.P,REF\u002A\u002A,1*%
%TO.N,N/C*%
X57785000Y-88265000D03*
D14*
%TO.P,REF\u002A\u002A,2*%
X57785000Y-90805000D03*
%TO.P,REF\u002A\u002A,3*%
X57785000Y-93345000D03*
%TO.P,REF\u002A\u002A,4*%
X57785000Y-95885000D03*
%TO.P,REF\u002A\u002A,5*%
X57785000Y-98425000D03*
%TO.P,REF\u002A\u002A,6*%
X57785000Y-100965000D03*
%TO.P,REF\u002A\u002A,7*%
X57785000Y-103505000D03*
%TO.P,REF\u002A\u002A,8*%
X57785000Y-106045000D03*
%TO.P,REF\u002A\u002A,9*%
X57785000Y-108585000D03*
%TO.P,REF\u002A\u002A,10*%
X57785000Y-111125000D03*
%TD*%
D10*
%TO.P,C2,1*%
%TO.N,VCC_5V*%
X83100000Y-84455000D03*
%TO.P,C2,2*%
%TO.N,GND*%
X85175000Y-84455000D03*
%TD*%
D26*
%TO.P,D4,1,K*%
%TO.N,GND*%
X106997500Y-57395000D03*
%TO.P,D4,2,A*%
%TO.N,Net-(D4-Pad2)*%
X106997500Y-59445000D03*
%TD*%
D12*
%TO.P,R44,1*%
%TO.N,GND*%
X107670000Y-97790000D03*
%TO.P,R44,2*%
%TO.N,/M3_A1*%
X108865000Y-97790000D03*
%TD*%
D27*
%TO.P,IC1,1,NC_1*%
%TO.N,unconnected-(IC1-Pad1)*%
X81020000Y-77840000D03*
%TO.P,IC1,2,NC_2*%
%TO.N,unconnected-(IC1-Pad2)*%
X81020000Y-77190000D03*
%TO.P,IC1,3,NC_3*%
%TO.N,unconnected-(IC1-Pad3)*%
X81020000Y-76540000D03*
%TO.P,IC1,4,RFB*%
%TO.N,Net-(C23-Pad2)*%
X81020000Y-75890000D03*
%TO.P,IC1,5,VIN*%
%TO.N,Net-(C23-Pad1)*%
X81020000Y-75240000D03*
%TO.P,IC1,6,VOUT*%
%TO.N,Net-(C17-Pad1)*%
X81020000Y-74590000D03*
%TO.P,IC1,7,NC_4*%
%TO.N,unconnected-(IC1-Pad7)*%
X81020000Y-73940000D03*
%TO.P,IC1,8,MCLK*%
%TO.N,Net-(IC1-Pad8)*%
X81020000Y-73290000D03*
%TO.P,IC1,9,DVDD*%
%TO.N,VCC_5V*%
X73920000Y-73290000D03*
%TO.P,IC1,10,AVDD1*%
X73920000Y-73940000D03*
%TO.P,IC1,11,AVDD2*%
X73920000Y-74590000D03*
%TO.P,IC1,12,DGND*%
%TO.N,GND*%
X73920000Y-75240000D03*
%TO.P,IC1,13,AGND1*%
X73920000Y-75890000D03*
%TO.P,IC1,14,AGND2*%
X73920000Y-76540000D03*
%TO.P,IC1,15,SDA*%
%TO.N,SDA*%
X73920000Y-77190000D03*
%TO.P,IC1,16,SCL*%
%TO.N,SCL*%
X73920000Y-77840000D03*
%TD*%
D15*
%TO.P,C7,1*%
%TO.N,VCC_5V*%
X96837500Y-103590000D03*
%TO.P,C7,2*%
%TO.N,GND*%
X96837500Y-101515000D03*
%TD*%
D28*
%TO.P,C13,1*%
%TO.N,VCC_5V*%
X95250000Y-102552500D03*
%TO.P,C13,2*%
%TO.N,GND*%
X95250000Y-101417500D03*
%TD*%
D13*
%TO.P,REF\u002A\u002A,1*%
%TO.N,N/C*%
X55245000Y-88265000D03*
D14*
%TO.P,REF\u002A\u002A,2*%
X55245000Y-90805000D03*
%TO.P,REF\u002A\u002A,3*%
X55245000Y-93345000D03*
%TO.P,REF\u002A\u002A,4*%
X55245000Y-95885000D03*
%TO.P,REF\u002A\u002A,5*%
X55245000Y-98425000D03*
%TO.P,REF\u002A\u002A,6*%
X55245000Y-100965000D03*
%TO.P,REF\u002A\u002A,7*%
X55245000Y-103505000D03*
%TO.P,REF\u002A\u002A,8*%
X55245000Y-106045000D03*
%TO.P,REF\u002A\u002A,9*%
X55245000Y-108585000D03*
%TO.P,REF\u002A\u002A,10*%
X55245000Y-111125000D03*
%TD*%
D12*
%TO.P,R50,1*%
%TO.N,/LED_yellow*%
X95287500Y-59055000D03*
%TO.P,R50,2*%
%TO.N,Net-(D2-Pad2)*%
X96482500Y-59055000D03*
%TD*%
%TO.P,J5,1*%
%TO.N,Net-(C23-Pad1)*%
X92747500Y-76200000D03*
%TO.P,J5,2*%
%TO.N,/AS1_D1*%
X93942500Y-76200000D03*
%TD*%
D17*
%TO.P,J2,1*%
%TO.N,/AS1_S4*%
X99695000Y-72352500D03*
%TO.P,J2,2*%
%TO.N,/AS1_D4*%
X99695000Y-71157500D03*
%TD*%
D18*
%TO.P,R7,1*%
%TO.N,VCC_5V*%
X82867500Y-86080000D03*
%TO.P,R7,2*%
%TO.N,Net-(IOEX2-Pad15)*%
X82867500Y-87275000D03*
%TD*%
D21*
%TO.P,R37,1*%
%TO.N,GND*%
X76480000Y-81597500D03*
%TO.P,R37,2*%
%TO.N,/M1_A2*%
X75285000Y-81597500D03*
%TD*%
D29*
%TO.P,UC1,1,D1/TX*%
%TO.N,unconnected-(UC1-Pad1)*%
X72072500Y-80645000D03*
D30*
%TO.P,UC1,2,D0/RX*%
%TO.N,unconnected-(UC1-Pad2)*%
X72072500Y-83185000D03*
%TO.P,UC1,3,GND*%
%TO.N,GND*%
X72072500Y-85725000D03*
%TO.P,UC1,4,GND*%
X72072500Y-88265000D03*
%TO.P,UC1,5,D2*%
%TO.N,SDA*%
X72072500Y-90805000D03*
%TO.P,UC1,6,~D3*%
%TO.N,SCL*%
X72072500Y-93345000D03*
%TO.P,UC1,7,D4/A6*%
%TO.N,Net-(J11-Pad1)*%
X72072500Y-95885000D03*
%TO.P,UC1,8,~D5*%
%TO.N,Net-(J11-Pad2)*%
X72072500Y-98425000D03*
%TO.P,UC1,9,~D6/A7*%
%TO.N,Net-(J11-Pad3)*%
X72072500Y-100965000D03*
%TO.P,UC1,10,D7*%
%TO.N,Net-(J11-Pad4)*%
X72072500Y-103505000D03*
%TO.P,UC1,11,D8/A8*%
%TO.N,Net-(J11-Pad5)*%
X72072500Y-106045000D03*
%TO.P,UC1,12,~D9/A9*%
%TO.N,Net-(J11-Pad6)*%
X72072500Y-108585000D03*
%TO.P,UC1,13,~D10/A10*%
%TO.N,Net-(J12-Pad5)*%
X87312500Y-108585000D03*
%TO.P,UC1,14,D16*%
%TO.N,Net-(J12-Pad4)*%
X87312500Y-106045000D03*
%TO.P,UC1,15,D14*%
%TO.N,Net-(J12-Pad3)*%
X87312500Y-103505000D03*
%TO.P,UC1,16,D15*%
%TO.N,Net-(J12-Pad2)*%
X87312500Y-100965000D03*
%TO.P,UC1,17,D18/A0*%
%TO.N,Net-(J12-Pad1)*%
X87312500Y-98425000D03*
%TO.P,UC1,18,D19/A1*%
%TO.N,unconnected-(UC1-Pad18)*%
X87312500Y-95885000D03*
%TO.P,UC1,19,D20/A2*%
%TO.N,unconnected-(UC1-Pad19)*%
X87312500Y-93345000D03*
%TO.P,UC1,20,D21/A3*%
%TO.N,unconnected-(UC1-Pad20)*%
X87312500Y-90805000D03*
%TO.P,UC1,21,VCC*%
%TO.N,VCC_5V*%
X87312500Y-88265000D03*
%TO.P,UC1,22,RST*%
%TO.N,unconnected-(UC1-Pad22)*%
X87312500Y-85725000D03*
%TO.P,UC1,23,GND*%
%TO.N,GND*%
X87312500Y-83185000D03*
%TO.P,UC1,24,RAW*%
%TO.N,unconnected-(UC1-Pad24)*%
X87312500Y-80645000D03*
%TD*%
D21*
%TO.P,J9,1*%
%TO.N,/AS1_D4*%
X98107500Y-69532500D03*
%TO.P,J9,2*%
%TO.N,/NEEDLE*%
X96912500Y-69532500D03*
%TD*%
%TO.P,R32,1*%
%TO.N,/AS_4*%
X75797500Y-71600000D03*
%TO.P,R32,2*%
%TO.N,GND*%
X74602500Y-71600000D03*
%TD*%
D31*
%TO.P,MUX1,1,VDD*%
%TO.N,VCC_5V*%
X118842500Y-63538100D03*
%TO.P,MUX1,2,NC*%
%TO.N,unconnected-(MUX1-Pad2)*%
X118192499Y-63538100D03*
%TO.P,MUX1,3,NC*%
%TO.N,unconnected-(MUX1-Pad3)*%
X117542500Y-63538100D03*
%TO.P,MUX1,4,S16*%
%TO.N,Net-(CON1-Pad16)*%
X116892499Y-63538100D03*
%TO.P,MUX1,5,S15*%
%TO.N,Net-(CON1-Pad15)*%
X116242501Y-63538100D03*
%TO.P,MUX1,6,S14*%
%TO.N,Net-(CON1-Pad14)*%
X115592499Y-63538100D03*
%TO.P,MUX1,7,S13*%
%TO.N,Net-(CON1-Pad13)*%
X114942501Y-63538100D03*
%TO.P,MUX1,8,S12*%
%TO.N,Net-(CON1-Pad12)*%
X114292502Y-63538100D03*
%TO.P,MUX1,9,S11*%
%TO.N,Net-(CON1-Pad11)*%
X113642501Y-63538100D03*
%TO.P,MUX1,10,S10*%
%TO.N,Net-(CON1-Pad10)*%
X112992502Y-63538100D03*
%TO.P,MUX1,11,S9*%
%TO.N,Net-(CON1-Pad9)*%
X112342501Y-63538100D03*
%TO.P,MUX1,12,GND*%
%TO.N,GND*%
X111692502Y-63538100D03*
%TO.P,MUX1,13,NC*%
%TO.N,unconnected-(MUX1-Pad13)*%
X111042501Y-63538100D03*
%TO.P,MUX1,14,A3*%
%TO.N,/M1_A3*%
X110392502Y-63538100D03*
%TO.P,MUX1,15,A2*%
%TO.N,/M1_A2*%
X110392500Y-69176900D03*
%TO.P,MUX1,16,A1*%
%TO.N,/M1_A1*%
X111042501Y-69176900D03*
%TO.P,MUX1,17,A0*%
%TO.N,/M1_A0*%
X111692500Y-69176900D03*
%TO.P,MUX1,18,EN*%
%TO.N,/M1_EN*%
X112342501Y-69176900D03*
%TO.P,MUX1,19,S1*%
%TO.N,Net-(CON1-Pad1)*%
X112992499Y-69176900D03*
%TO.P,MUX1,20,S2*%
%TO.N,Net-(CON1-Pad2)*%
X113642501Y-69176900D03*
%TO.P,MUX1,21,S3*%
%TO.N,Net-(CON1-Pad3)*%
X114292499Y-69176900D03*
%TO.P,MUX1,22,S4*%
%TO.N,Net-(CON1-Pad4)*%
X114942501Y-69176900D03*
%TO.P,MUX1,23,S5*%
%TO.N,Net-(CON1-Pad5)*%
X115592499Y-69176900D03*
%TO.P,MUX1,24,S6*%
%TO.N,Net-(CON1-Pad6)*%
X116242501Y-69176900D03*
%TO.P,MUX1,25,S7*%
%TO.N,Net-(CON1-Pad7)*%
X116892499Y-69176900D03*
%TO.P,MUX1,26,S8*%
%TO.N,Net-(CON1-Pad8)*%
X117542500Y-69176900D03*
%TO.P,MUX1,27,VSS*%
%TO.N,GND*%
X118192499Y-69176900D03*
%TO.P,MUX1,28,D*%
%TO.N,/SIG_OUT*%
X118842500Y-69176900D03*
%TD*%
D17*
%TO.P,R49,1*%
%TO.N,GND*%
X92710000Y-112992500D03*
%TO.P,R49,2*%
%TO.N,/M3_EN*%
X92710000Y-111797500D03*
%TD*%
%TO.P,R34,1*%
%TO.N,/AS_2*%
X86995000Y-62510000D03*
%TO.P,R34,2*%
%TO.N,GND*%
X86995000Y-61315000D03*
%TD*%
D21*
%TO.P,R59,1*%
%TO.N,GND*%
X84797500Y-81600000D03*
%TO.P,R59,2*%
%TO.N,Net-(C17-Pad2)*%
X83602500Y-81600000D03*
%TD*%
D32*
%TO.P,Needle1,1,Pin_1*%
%TO.N,/NEEDLE*%
X94932500Y-67310000D03*
%TD*%
D26*
%TO.P,D2,1,K*%
%TO.N,GND*%
X101917500Y-57395000D03*
%TO.P,D2,2,A*%
%TO.N,Net-(D2-Pad2)*%
X101917500Y-59445000D03*
%TD*%
D12*
%TO.P,R17,1*%
%TO.N,/LED_red*%
X95287500Y-57785000D03*
%TO.P,R17,2*%
%TO.N,Net-(D1-Pad2)*%
X96482500Y-57785000D03*
%TD*%
D31*
%TO.P,MUX2,1,VDD*%
%TO.N,VCC_5V*%
X106142500Y-80683100D03*
%TO.P,MUX2,2,NC*%
%TO.N,unconnected-(MUX2-Pad2)*%
X105492499Y-80683100D03*
%TO.P,MUX2,3,NC*%
%TO.N,unconnected-(MUX2-Pad3)*%
X104842500Y-80683100D03*
%TO.P,MUX2,4,S16*%
%TO.N,Net-(CON1-Pad16)*%
X104192499Y-80683100D03*
%TO.P,MUX2,5,S15*%
%TO.N,Net-(CON1-Pad15)*%
X103542501Y-80683100D03*
%TO.P,MUX2,6,S14*%
%TO.N,Net-(CON1-Pad14)*%
X102892499Y-80683100D03*
%TO.P,MUX2,7,S13*%
%TO.N,Net-(CON1-Pad13)*%
X102242501Y-80683100D03*
%TO.P,MUX2,8,S12*%
%TO.N,Net-(CON1-Pad12)*%
X101592502Y-80683100D03*
%TO.P,MUX2,9,S11*%
%TO.N,Net-(CON1-Pad11)*%
X100942501Y-80683100D03*
%TO.P,MUX2,10,S10*%
%TO.N,Net-(CON1-Pad10)*%
X100292502Y-80683100D03*
%TO.P,MUX2,11,S9*%
%TO.N,Net-(CON1-Pad9)*%
X99642501Y-80683100D03*
%TO.P,MUX2,12,GND*%
%TO.N,GND*%
X98992502Y-80683100D03*
%TO.P,MUX2,13,NC*%
%TO.N,unconnected-(MUX2-Pad13)*%
X98342501Y-80683100D03*
%TO.P,MUX2,14,A3*%
%TO.N,/M2_A3*%
X97692502Y-80683100D03*
%TO.P,MUX2,15,A2*%
%TO.N,/M2_A2*%
X97692500Y-86321900D03*
%TO.P,MUX2,16,A1*%
%TO.N,/M2_A1*%
X98342501Y-86321900D03*
%TO.P,MUX2,17,A0*%
%TO.N,/M2_A0*%
X98992500Y-86321900D03*
%TO.P,MUX2,18,EN*%
%TO.N,/M2_EN*%
X99642501Y-86321900D03*
%TO.P,MUX2,19,S1*%
%TO.N,Net-(CON1-Pad1)*%
X100292499Y-86321900D03*
%TO.P,MUX2,20,S2*%
%TO.N,Net-(CON1-Pad2)*%
X100942501Y-86321900D03*
%TO.P,MUX2,21,S3*%
%TO.N,Net-(CON1-Pad3)*%
X101592499Y-86321900D03*
%TO.P,MUX2,22,S4*%
%TO.N,Net-(CON1-Pad4)*%
X102242501Y-86321900D03*
%TO.P,MUX2,23,S5*%
%TO.N,Net-(CON1-Pad5)*%
X102892499Y-86321900D03*
%TO.P,MUX2,24,S6*%
%TO.N,Net-(CON1-Pad6)*%
X103542501Y-86321900D03*
%TO.P,MUX2,25,S7*%
%TO.N,Net-(CON1-Pad7)*%
X104192499Y-86321900D03*
%TO.P,MUX2,26,S8*%
%TO.N,Net-(CON1-Pad8)*%
X104842500Y-86321900D03*
%TO.P,MUX2,27,VSS*%
%TO.N,GND*%
X105492499Y-86321900D03*
%TO.P,MUX2,28,D*%
%TO.N,/SIG_MEAS_V*%
X106142500Y-86321900D03*
%TD*%
D33*
%TO.P,Y1,1,TRI-STATE*%
%TO.N,unconnected-(Y1-Pad1)*%
X54990000Y-59790000D03*
D34*
%TO.P,Y1,4,CASE_GROUND*%
%TO.N,GND*%
X54990000Y-67410000D03*
%TO.P,Y1,5,OUTPUT*%
%TO.N,Net-(IC1-Pad8)*%
X62610000Y-67410000D03*
%TO.P,Y1,8,+5V_DC*%
%TO.N,VCC_5V*%
X62610000Y-59790000D03*
%TD*%
D12*
%TO.P,R24,1*%
%TO.N,VCC_5V*%
X68602500Y-68500000D03*
%TO.P,R24,2*%
%TO.N,Net-(IOEX1-Pad16)*%
X69797500Y-68500000D03*
%TD*%
D10*
%TO.P,C1,1*%
%TO.N,VCC_5V*%
X117707500Y-104140000D03*
%TO.P,C1,2*%
%TO.N,GND*%
X119782500Y-104140000D03*
%TD*%
D12*
%TO.P,R60,1*%
%TO.N,Net-(C17-Pad2)*%
X100685000Y-78105000D03*
%TO.P,R60,2*%
%TO.N,Net-(OPA1-Pad2)*%
X101880000Y-78105000D03*
%TD*%
D18*
%TO.P,R2,1*%
%TO.N,GND*%
X83000000Y-94302500D03*
%TO.P,R2,2*%
%TO.N,Net-(IOEX2-Pad16)*%
X83000000Y-95497500D03*
%TD*%
D21*
%TO.P,R45,1*%
%TO.N,GND*%
X103467500Y-95250000D03*
%TO.P,R45,2*%
%TO.N,/M3_A2*%
X102272500Y-95250000D03*
%TD*%
D26*
%TO.P,D3,1,K*%
%TO.N,GND*%
X104457500Y-57395000D03*
%TO.P,D3,2,A*%
%TO.N,Net-(D3-Pad2)*%
X104457500Y-59445000D03*
%TD*%
D21*
%TO.P,R46,1*%
%TO.N,GND*%
X83820000Y-109537500D03*
%TO.P,R46,2*%
%TO.N,/M3_A3*%
X82625000Y-109537500D03*
%TD*%
D12*
%TO.P,R67,1*%
%TO.N,Net-(OPA2-Pad1)*%
X87667500Y-73977500D03*
%TO.P,R67,2*%
%TO.N,/AS1_S2*%
X88862500Y-73977500D03*
%TD*%
D21*
%TO.P,R35,1*%
%TO.N,GND*%
X80925000Y-82867500D03*
%TO.P,R35,2*%
%TO.N,/M1_A0*%
X79730000Y-82867500D03*
%TD*%
D12*
%TO.P,J8,1*%
%TO.N,/AS1_S4*%
X102907500Y-75882500D03*
%TO.P,J8,2*%
%TO.N,Net-(J8-Pad2)*%
X104102500Y-75882500D03*
%TD*%
%TO.P,R55,1*%
%TO.N,Net-(OPA2-Pad6)*%
X87667500Y-72707500D03*
%TO.P,R55,2*%
%TO.N,/AS1_S3*%
X88862500Y-72707500D03*
%TD*%
%TO.P,R62,1*%
%TO.N,GND*%
X104495000Y-64770000D03*
%TO.P,R62,2*%
%TO.N,VCC{slash}2*%
X105690000Y-64770000D03*
%TD*%
D21*
%TO.P,R31,1*%
%TO.N,/AS_1*%
X75797500Y-70500000D03*
%TO.P,R31,2*%
%TO.N,GND*%
X74602500Y-70500000D03*
%TD*%
D13*
%TO.P,CON3,1,Pin_1*%
%TO.N,/GPIO_B0*%
X86980000Y-58102500D03*
D14*
%TO.P,CON3,2,Pin_2*%
%TO.N,/GPIO_B1*%
X84440000Y-58102500D03*
%TO.P,CON3,3,Pin_3*%
%TO.N,/GPIO_B2*%
X81900000Y-58102500D03*
%TO.P,CON3,4,Pin_4*%
%TO.N,/GPIO_B3*%
X79360000Y-58102500D03*
%TO.P,CON3,5,Pin_5*%
%TO.N,/GPIO_B4*%
X76820000Y-58102500D03*
%TO.P,CON3,6,Pin_6*%
%TO.N,/GPIO_B5*%
X74280000Y-58102500D03*
%TO.P,CON3,7,Pin_7*%
%TO.N,/GPIO_B6*%
X71740000Y-58102500D03*
%TO.P,CON3,8,Pin_8*%
%TO.N,/GPIO_B7*%
X69200000Y-58102500D03*
%TD*%
D18*
%TO.P,R4,1*%
%TO.N,VCC_5V*%
X80327500Y-86080000D03*
%TO.P,R4,2*%
%TO.N,Net-(IOEX2-Pad17)*%
X80327500Y-87275000D03*
%TD*%
D17*
%TO.P,R_shunt1,1*%
%TO.N,/SIG_MEAS_Z*%
X118427500Y-80962500D03*
%TO.P,R_shunt1,2*%
%TO.N,Net-(OPA1-Pad6)*%
X118427500Y-79767500D03*
%TD*%
%TO.P,R53,1*%
%TO.N,VCC_5V*%
X69850000Y-64415000D03*
%TO.P,R53,2*%
%TO.N,SDA*%
X69850000Y-63220000D03*
%TD*%
D18*
%TO.P,R1,1*%
%TO.N,GND*%
X81800000Y-94302500D03*
%TO.P,R1,2*%
%TO.N,Net-(IOEX2-Pad17)*%
X81800000Y-95497500D03*
%TD*%
D12*
%TO.P,J10,1*%
%TO.N,/NEEDLE_*%
X91795000Y-66040000D03*
%TO.P,J10,2*%
%TO.N,/NEEDLE*%
X92990000Y-66040000D03*
%TD*%
D18*
%TO.P,R3,1*%
%TO.N,GND*%
X84200000Y-94302500D03*
%TO.P,R3,2*%
%TO.N,Net-(IOEX2-Pad15)*%
X84200000Y-95497500D03*
%TD*%
D21*
%TO.P,R47,1*%
%TO.N,GND*%
X83147500Y-108267500D03*
%TO.P,R47,2*%
%TO.N,/M1_EN*%
X81952500Y-108267500D03*
%TD*%
D35*
%TO.P,AS1,1,IN1*%
%TO.N,/AS_1*%
X97751900Y-75299999D03*
%TO.P,AS1,2,D1*%
%TO.N,/AS1_D1*%
X97751900Y-74650001D03*
%TO.P,AS1,3,S1*%
%TO.N,/AS1_S1*%
X97751900Y-73999999D03*
%TO.P,AS1,4,VSS*%
%TO.N,GND*%
X97751900Y-73350001D03*
%TO.P,AS1,5,GND*%
X97751900Y-72700002D03*
%TO.P,AS1,6,S4*%
%TO.N,/AS1_S4*%
X97751900Y-72050001D03*
%TO.P,AS1,7,D4*%
%TO.N,/AS1_D4*%
X97751900Y-71400002D03*
%TO.P,AS1,8,IN4*%
%TO.N,/AS_4*%
X97751900Y-70750001D03*
%TO.P,AS1,9,IN3*%
%TO.N,/AS_3*%
X92113100Y-70750001D03*
%TO.P,AS1,10,D3*%
%TO.N,/AS1_D3*%
X92113100Y-71399999D03*
%TO.P,AS1,11,S3*%
%TO.N,/AS1_S3*%
X92113100Y-72050001D03*
%TO.P,AS1,12,NC*%
%TO.N,unconnected-(AS1-Pad12)*%
X92113100Y-72699999D03*
%TO.P,AS1,13,VDD*%
%TO.N,VCC_5V*%
X92113100Y-73349998D03*
%TO.P,AS1,14,S2*%
%TO.N,/AS1_S2*%
X92113100Y-73999999D03*
%TO.P,AS1,15,D2*%
%TO.N,/AS1_D2*%
X92113100Y-74649998D03*
%TO.P,AS1,16,IN2*%
%TO.N,/AS_2*%
X92113100Y-75299999D03*
%TD*%
D18*
%TO.P,J1,1*%
%TO.N,/AS1_S1*%
X99695000Y-74332500D03*
%TO.P,J1,2*%
%TO.N,/AS1_D1*%
X99695000Y-75527500D03*
%TD*%
D36*
%TO.P,OPA2,1,OUTA*%
%TO.N,Net-(OPA2-Pad1)*%
X90465001Y-93611700D03*
%TO.P,OPA2,2,-INA*%
X91114999Y-93611700D03*
%TO.P,OPA2,3,+INA*%
%TO.N,/SIG_MEAS_V*%
X91765001Y-93611700D03*
%TO.P,OPA2,4,V-*%
%TO.N,GND*%
X92414999Y-93611700D03*
%TO.P,OPA2,5,+INB*%
%TO.N,/NEEDLE_*%
X92414999Y-89268300D03*
%TO.P,OPA2,6,-INB*%
%TO.N,Net-(OPA2-Pad6)*%
X91765001Y-89268300D03*
%TO.P,OPA2,7,OUTB*%
X91114999Y-89268300D03*
%TO.P,OPA2,8,V+*%
%TO.N,VCC_5V*%
X90465001Y-89268300D03*
%TD*%
D18*
%TO.P,J4,1*%
%TO.N,/AS1_S2*%
X90170000Y-73697500D03*
%TO.P,J4,2*%
%TO.N,/AS1_D2*%
X90170000Y-74892500D03*
%TD*%
D37*
%TO.P,C20,1*%
%TO.N,GND*%
X98742500Y-101515000D03*
%TO.P,C20,2*%
%TO.N,VCC_5V*%
X98742500Y-103590000D03*
%TD*%
D26*
%TO.P,D1,1,K*%
%TO.N,GND*%
X99377500Y-57395000D03*
%TO.P,D1,2,A*%
%TO.N,Net-(D1-Pad2)*%
X99377500Y-59445000D03*
%TD*%
D20*
%TO.P,C11,1*%
%TO.N,VCC_5V*%
X117542500Y-90487500D03*
%TO.P,C11,2*%
%TO.N,GND*%
X118677500Y-90487500D03*
%TD*%
D17*
%TO.P,R18,1*%
%TO.N,GND*%
X71100000Y-71697500D03*
%TO.P,R18,2*%
%TO.N,Net-(IOEX1-Pad15)*%
X71100000Y-70502500D03*
%TD*%
%TO.P,R63,1*%
%TO.N,Net-(OPA1-Pad6)*%
X118427500Y-78702500D03*
%TO.P,R63,2*%
%TO.N,Net-(OPA1-Pad7)*%
X118427500Y-77507500D03*
%TD*%
D13*
%TO.P,J11,1,Pin_1*%
%TO.N,Net-(J11-Pad1)*%
X69532500Y-95885000D03*
D14*
%TO.P,J11,2,Pin_2*%
%TO.N,Net-(J11-Pad2)*%
X69532500Y-98425000D03*
%TO.P,J11,3,Pin_3*%
%TO.N,Net-(J11-Pad3)*%
X69532500Y-100965000D03*
%TO.P,J11,4,Pin_4*%
%TO.N,Net-(J11-Pad4)*%
X69532500Y-103505000D03*
%TO.P,J11,5,Pin_5*%
%TO.N,Net-(J11-Pad5)*%
X69532500Y-106045000D03*
%TO.P,J11,6,Pin_6*%
%TO.N,Net-(J11-Pad6)*%
X69532500Y-108585000D03*
%TD*%
D12*
%TO.P,R25,1*%
%TO.N,VCC_5V*%
X68605000Y-69600000D03*
%TO.P,R25,2*%
%TO.N,Net-(IOEX1-Pad15)*%
X69800000Y-69600000D03*
%TD*%
D38*
%TO.P,C23,1*%
%TO.N,Net-(C23-Pad1)*%
X85022500Y-74930000D03*
%TO.P,C23,2*%
%TO.N,Net-(C23-Pad2)*%
X83887500Y-74930000D03*
%TD*%
D12*
%TO.P,R54,1*%
%TO.N,Net-(C23-Pad2)*%
X83857500Y-75882500D03*
%TO.P,R54,2*%
%TO.N,Net-(C23-Pad1)*%
X85052500Y-75882500D03*
%TD*%
D39*
%TO.P,IOEX1,1,GPB0*%
%TO.N,/GPIO_B0*%
X80425000Y-61487500D03*
%TO.P,IOEX1,2,GPB1*%
%TO.N,/GPIO_B1*%
X79775000Y-61487500D03*
%TO.P,IOEX1,3,GPB2*%
%TO.N,/GPIO_B2*%
X79125000Y-61487500D03*
%TO.P,IOEX1,4,GPB3*%
%TO.N,/GPIO_B3*%
X78475000Y-61487500D03*
%TO.P,IOEX1,5,GPB4*%
%TO.N,/GPIO_B4*%
X77825000Y-61487500D03*
%TO.P,IOEX1,6,GPB5*%
%TO.N,/GPIO_B5*%
X77175000Y-61487500D03*
%TO.P,IOEX1,7,GPB6*%
%TO.N,/GPIO_B6*%
X76525000Y-61487500D03*
%TO.P,IOEX1,8,GPB7*%
%TO.N,/GPIO_B7*%
X75875000Y-61487500D03*
%TO.P,IOEX1,9,VDD*%
%TO.N,VCC_5V*%
X75225000Y-61487500D03*
%TO.P,IOEX1,10,VSS*%
%TO.N,GND*%
X74575000Y-61487500D03*
%TO.P,IOEX1,11,NC*%
%TO.N,unconnected-(IOEX1-Pad11)*%
X73925000Y-61487500D03*
%TO.P,IOEX1,12,SCK*%
%TO.N,SCL*%
X73275000Y-61487500D03*
%TO.P,IOEX1,13,SDA*%
%TO.N,SDA*%
X72625000Y-61487500D03*
%TO.P,IOEX1,14,NC*%
%TO.N,unconnected-(IOEX1-Pad14)*%
X71975000Y-61487500D03*
%TO.P,IOEX1,15,A0*%
%TO.N,Net-(IOEX1-Pad15)*%
X71975000Y-68687500D03*
%TO.P,IOEX1,16,A1*%
%TO.N,Net-(IOEX1-Pad16)*%
X72625000Y-68687500D03*
%TO.P,IOEX1,17,A2*%
%TO.N,Net-(IOEX1-Pad17)*%
X73275000Y-68687500D03*
%TO.P,IOEX1,18,~{RESET}*%
%TO.N,Net-(IOEX1-Pad18)*%
X73925000Y-68687500D03*
%TO.P,IOEX1,19,INTB*%
%TO.N,unconnected-(IOEX1-Pad19)*%
X74575000Y-68687500D03*
%TO.P,IOEX1,20,INTA*%
%TO.N,unconnected-(IOEX1-Pad20)*%
X75225000Y-68687500D03*
%TO.P,IOEX1,21,GPA0*%
%TO.N,/AS_1*%
X75875000Y-68687500D03*
%TO.P,IOEX1,22,GPA1*%
%TO.N,/AS_4*%
X76525000Y-68687500D03*
%TO.P,IOEX1,23,GPA2*%
%TO.N,/AS_3*%
X77175000Y-68687500D03*
%TO.P,IOEX1,24,GPA3*%
%TO.N,/AS_2*%
X77825000Y-68687500D03*
%TO.P,IOEX1,25,GPA4*%
%TO.N,/LED_red*%
X78475000Y-68687500D03*
%TO.P,IOEX1,26,GPA5*%
%TO.N,/LED_yellow*%
X79125000Y-68687500D03*
%TO.P,IOEX1,27,GPA6*%
%TO.N,/LED_green*%
X79775000Y-68687500D03*
%TO.P,IOEX1,28,GPA7*%
%TO.N,/LED_blue*%
X80425000Y-68687500D03*
%TD*%
%TO.P,IOEX2,1,GPB0*%
%TO.N,/M3_A0*%
X75150000Y-104565000D03*
%TO.P,IOEX2,2,GPB1*%
%TO.N,/M3_A1*%
X75800000Y-104565000D03*
%TO.P,IOEX2,3,GPB2*%
%TO.N,/M3_A2*%
X76450000Y-104565000D03*
%TO.P,IOEX2,4,GPB3*%
%TO.N,/M3_A3*%
X77100000Y-104565000D03*
%TO.P,IOEX2,5,GPB4*%
%TO.N,/M1_EN*%
X77750000Y-104565000D03*
%TO.P,IOEX2,6,GPB5*%
%TO.N,/M2_EN*%
X78400000Y-104565000D03*
%TO.P,IOEX2,7,GPB6*%
%TO.N,/M3_EN*%
X79050000Y-104565000D03*
%TO.P,IOEX2,8,GPB7*%
%TO.N,unconnected-(IOEX2-Pad8)*%
X79700000Y-104565000D03*
%TO.P,IOEX2,9,VDD*%
%TO.N,VCC_5V*%
X80350000Y-104565000D03*
%TO.P,IOEX2,10,VSS*%
%TO.N,GND*%
X81000000Y-104565000D03*
%TO.P,IOEX2,11,NC*%
%TO.N,unconnected-(IOEX2-Pad11)*%
X81650000Y-104565000D03*
%TO.P,IOEX2,12,SCK*%
%TO.N,SCL*%
X82300000Y-104565000D03*
%TO.P,IOEX2,13,SDA*%
%TO.N,SDA*%
X82950000Y-104565000D03*
%TO.P,IOEX2,14,NC*%
%TO.N,unconnected-(IOEX2-Pad14)*%
X83600000Y-104565000D03*
%TO.P,IOEX2,15,A0*%
%TO.N,Net-(IOEX2-Pad15)*%
X83600000Y-97365000D03*
%TO.P,IOEX2,16,A1*%
%TO.N,Net-(IOEX2-Pad16)*%
X82950000Y-97365000D03*
%TO.P,IOEX2,17,A2*%
%TO.N,Net-(IOEX2-Pad17)*%
X82300000Y-97365000D03*
%TO.P,IOEX2,18,~{RESET}*%
%TO.N,Net-(IOEX2-Pad18)*%
X81650000Y-97365000D03*
%TO.P,IOEX2,19,INTB*%
%TO.N,unconnected-(IOEX2-Pad19)*%
X81000000Y-97365000D03*
%TO.P,IOEX2,20,INTA*%
%TO.N,unconnected-(IOEX2-Pad20)*%
X80350000Y-97365000D03*
%TO.P,IOEX2,21,GPA0*%
%TO.N,/M1_A0*%
X79700000Y-97365000D03*
%TO.P,IOEX2,22,GPA1*%
%TO.N,/M1_A1*%
X79050000Y-97365000D03*
%TO.P,IOEX2,23,GPA2*%
%TO.N,/M1_A2*%
X78400000Y-97365000D03*
%TO.P,IOEX2,24,GPA3*%
%TO.N,/M1_A3*%
X77750000Y-97365000D03*
%TO.P,IOEX2,25,GPA4*%
%TO.N,/M2_A0*%
X77100000Y-97365000D03*
%TO.P,IOEX2,26,GPA5*%
%TO.N,/M2_A1*%
X76450000Y-97365000D03*
%TO.P,IOEX2,27,GPA6*%
%TO.N,/M2_A2*%
X75800000Y-97365000D03*
%TO.P,IOEX2,28,GPA7*%
%TO.N,/M2_A3*%
X75150000Y-97365000D03*
%TD*%
D20*
%TO.P,C10,1*%
%TO.N,VCC_5V*%
X83887500Y-86042500D03*
%TO.P,C10,2*%
%TO.N,GND*%
X85022500Y-86042500D03*
%TD*%
D12*
%TO.P,J6,1*%
%TO.N,Net-(C23-Pad1)*%
X87667500Y-75247500D03*
%TO.P,J6,2*%
%TO.N,/AS1_D2*%
X88862500Y-75247500D03*
%TD*%
%TO.P,J7,1*%
%TO.N,Net-(C23-Pad1)*%
X87667500Y-71437500D03*
%TO.P,J7,2*%
%TO.N,/AS1_D3*%
X88862500Y-71437500D03*
%TD*%
D31*
%TO.P,MUX3,1,VDD*%
%TO.N,VCC_5V*%
X118842500Y-94335600D03*
%TO.P,MUX3,2,NC*%
%TO.N,unconnected-(MUX3-Pad2)*%
X118192499Y-94335600D03*
%TO.P,MUX3,3,NC*%
%TO.N,unconnected-(MUX3-Pad3)*%
X117542500Y-94335600D03*
%TO.P,MUX3,4,S16*%
%TO.N,Net-(CON1-Pad16)*%
X116892499Y-94335600D03*
%TO.P,MUX3,5,S15*%
%TO.N,Net-(CON1-Pad15)*%
X116242501Y-94335600D03*
%TO.P,MUX3,6,S14*%
%TO.N,Net-(CON1-Pad14)*%
X115592499Y-94335600D03*
%TO.P,MUX3,7,S13*%
%TO.N,Net-(CON1-Pad13)*%
X114942501Y-94335600D03*
%TO.P,MUX3,8,S12*%
%TO.N,Net-(CON1-Pad12)*%
X114292502Y-94335600D03*
%TO.P,MUX3,9,S11*%
%TO.N,Net-(CON1-Pad11)*%
X113642501Y-94335600D03*
%TO.P,MUX3,10,S10*%
%TO.N,Net-(CON1-Pad10)*%
X112992502Y-94335600D03*
%TO.P,MUX3,11,S9*%
%TO.N,Net-(CON1-Pad9)*%
X112342501Y-94335600D03*
%TO.P,MUX3,12,GND*%
%TO.N,GND*%
X111692502Y-94335600D03*
%TO.P,MUX3,13,NC*%
%TO.N,unconnected-(MUX3-Pad13)*%
X111042501Y-94335600D03*
%TO.P,MUX3,14,A3*%
%TO.N,/M3_A3*%
X110392502Y-94335600D03*
%TO.P,MUX3,15,A2*%
%TO.N,/M3_A2*%
X110392500Y-99974400D03*
%TO.P,MUX3,16,A1*%
%TO.N,/M3_A1*%
X111042501Y-99974400D03*
%TO.P,MUX3,17,A0*%
%TO.N,/M3_A0*%
X111692500Y-99974400D03*
%TO.P,MUX3,18,EN*%
%TO.N,/M3_EN*%
X112342501Y-99974400D03*
%TO.P,MUX3,19,S1*%
%TO.N,Net-(CON1-Pad1)*%
X112992499Y-99974400D03*
%TO.P,MUX3,20,S2*%
%TO.N,Net-(CON1-Pad2)*%
X113642501Y-99974400D03*
%TO.P,MUX3,21,S3*%
%TO.N,Net-(CON1-Pad3)*%
X114292499Y-99974400D03*
%TO.P,MUX3,22,S4*%
%TO.N,Net-(CON1-Pad4)*%
X114942501Y-99974400D03*
%TO.P,MUX3,23,S5*%
%TO.N,Net-(CON1-Pad5)*%
X115592499Y-99974400D03*
%TO.P,MUX3,24,S6*%
%TO.N,Net-(CON1-Pad6)*%
X116242501Y-99974400D03*
%TO.P,MUX3,25,S7*%
%TO.N,Net-(CON1-Pad7)*%
X116892499Y-99974400D03*
%TO.P,MUX3,26,S8*%
%TO.N,Net-(CON1-Pad8)*%
X117542500Y-99974400D03*
%TO.P,MUX3,27,VSS*%
%TO.N,GND*%
X118192499Y-99974400D03*
%TO.P,MUX3,28,D*%
%TO.N,/SIG_MEAS_Z*%
X118842500Y-99974400D03*
%TD*%
D17*
%TO.P,R16,1*%
%TO.N,GND*%
X72200000Y-71697500D03*
%TO.P,R16,2*%
%TO.N,Net-(IOEX1-Pad16)*%
X72200000Y-70502500D03*
%TD*%
D13*
%TO.P,J12,1,Pin_1*%
%TO.N,Net-(J12-Pad1)*%
X89852500Y-98425000D03*
D14*
%TO.P,J12,2,Pin_2*%
%TO.N,Net-(J12-Pad2)*%
X89852500Y-100965000D03*
%TO.P,J12,3,Pin_3*%
%TO.N,Net-(J12-Pad3)*%
X89852500Y-103505000D03*
%TO.P,J12,4,Pin_4*%
%TO.N,Net-(J12-Pad4)*%
X89852500Y-106045000D03*
%TO.P,J12,5,Pin_5*%
%TO.N,Net-(J12-Pad5)*%
X89852500Y-108585000D03*
%TD*%
D12*
%TO.P,R41,1*%
%TO.N,GND*%
X73697500Y-90487500D03*
%TO.P,R41,2*%
%TO.N,/M2_A2*%
X74892500Y-90487500D03*
%TD*%
D40*
%TO.P,OPA1,1,OUTA*%
%TO.N,Net-(J8-Pad2)*%
X112445800Y-77130001D03*
%TO.P,OPA1,2,-INA*%
%TO.N,Net-(OPA1-Pad2)*%
X112445800Y-77779999D03*
%TO.P,OPA1,3,+INA*%
%TO.N,VCC{slash}2*%
X112445800Y-78430001D03*
%TO.P,OPA1,4,V-*%
%TO.N,GND*%
X112445800Y-79079999D03*
%TO.P,OPA1,5,+INB*%
%TO.N,VCC{slash}2*%
X116789200Y-79079999D03*
%TO.P,OPA1,6,-INB*%
%TO.N,Net-(OPA1-Pad6)*%
X116789200Y-78430001D03*
%TO.P,OPA1,7,OUTB*%
%TO.N,Net-(OPA1-Pad7)*%
X116789200Y-77779999D03*
%TO.P,OPA1,8,V+*%
%TO.N,VCC_5V*%
X116789200Y-77130001D03*
%TD*%
D41*
%TO.N,/M1_A3*%
X93800000Y-61800000D03*
X74930000Y-85090000D03*
%TO.N,/M1_A2*%
X92300000Y-60642500D03*
X75247500Y-83185000D03*
%TO.N,/M1_A1*%
X77470000Y-84137500D03*
X90900000Y-62000000D03*
%TO.N,/M1_A0*%
X91440000Y-63817500D03*
X79400000Y-84600000D03*
%TO.N,SDA*%
X68800000Y-87100000D03*
X70485000Y-62230000D03*
X70167500Y-90805000D03*
X71400000Y-77800000D03*
X64400000Y-77500000D03*
%TO.N,SCL*%
X70000000Y-76600000D03*
X69532500Y-60642500D03*
X70167500Y-93027500D03*
%TO.N,VCC_5V*%
X117475000Y-86042500D03*
X118110000Y-92075000D03*
X94297500Y-73342500D03*
X117475000Y-75882500D03*
X94300000Y-78000000D03*
X84772500Y-107632500D03*
X59372500Y-72390000D03*
X95885000Y-104775000D03*
X81915000Y-84455000D03*
X71437500Y-64452500D03*
X95795697Y-90396855D03*
X117792500Y-105727500D03*
X76900000Y-78800000D03*
X71755000Y-74295000D03*
X117949858Y-60642500D03*
X90170000Y-77324500D03*
%TO.N,GND*%
X68580000Y-112712500D03*
X54292500Y-72390000D03*
X101917500Y-62866040D03*
X67692500Y-60007500D03*
X70200000Y-88800000D03*
X93980000Y-92075000D03*
X94600000Y-83300000D03*
X95003000Y-98742500D03*
X118745000Y-88582500D03*
X95250000Y-113030000D03*
X85407500Y-83185000D03*
X108902500Y-57150000D03*
X120015000Y-75882500D03*
X120015000Y-101600000D03*
X93662500Y-79700000D03*
X68100000Y-83700000D03*
X67945000Y-93662500D03*
%TO.N,/M1_EN*%
X86270845Y-67138000D03*
X77152500Y-108902500D03*
%TO.N,/M2_A3*%
X76193540Y-92710000D03*
X92100000Y-82300000D03*
%TO.N,/M2_A2*%
X92869467Y-84110989D03*
X75925258Y-90855242D03*
%TO.N,/M2_A1*%
X92200000Y-86000000D03*
X75882500Y-88900000D03*
%TO.N,/M2_A0*%
X75898300Y-86995000D03*
X94615000Y-86360000D03*
%TO.N,/M2_EN*%
X78422500Y-107315000D03*
X93840463Y-87996895D03*
%TO.N,/M3_EN*%
X79302539Y-108974961D03*
X93662500Y-111760000D03*
%TO.N,Net-(IC1-Pad8)*%
X64880000Y-72500000D03*
%TO.N,Net-(IOEX2-Pad18)*%
X79100000Y-100000000D03*
X84100000Y-90600000D03*
%TO.N,Net-(IOEX2-Pad17)*%
X81100000Y-89000000D03*
X81000000Y-100100000D03*
%TO.N,/AS_4*%
X82100000Y-69800000D03*
X77300000Y-72600000D03*
%TO.N,/AS_1*%
X73185142Y-64930142D03*
X80010000Y-70715980D03*
%TO.N,/GPIO_B0*%
X86000000Y-59800000D03*
%TO.N,/GPIO_B1*%
X83600000Y-60100000D03*
%TO.N,/GPIO_B2*%
X81800000Y-61800000D03*
%TO.N,/GPIO_B3*%
X78600000Y-59500000D03*
%TO.N,/GPIO_B4*%
X82000000Y-63800000D03*
%TO.N,/GPIO_B5*%
X77400000Y-64200000D03*
%TO.N,/GPIO_B6*%
X75300000Y-65900000D03*
%TO.N,/GPIO_B7*%
X74900000Y-64100000D03*
%TO.N,VCC{slash}2*%
X118745000Y-73025000D03*
X118745000Y-84137500D03*
X117475000Y-57785000D03*
%TO.N,/AS1_S1*%
X96202500Y-80962500D03*
X96100000Y-77400000D03*
%TO.N,Net-(OPA2-Pad1)*%
X86360000Y-74295000D03*
X84455000Y-80010000D03*
%TO.N,Net-(OPA2-Pad6)*%
X84455000Y-78105000D03*
X86360000Y-72390000D03*
%TO.N,Net-(IOEX2-Pad16)*%
X82975500Y-100300000D03*
X81900000Y-92500000D03*
%TO.N,Net-(IOEX2-Pad15)*%
X84000000Y-92500000D03*
X84100000Y-101900000D03*
%TO.N,Net-(CON1-Pad1)*%
X97167812Y-91550000D03*
X97155000Y-97155000D03*
X97175979Y-66357500D03*
%TO.N,Net-(CON1-Pad2)*%
X98445979Y-67627500D03*
X98425000Y-98425000D03*
X98425000Y-90256071D03*
%TO.N,Net-(CON1-Pad3)*%
X99715979Y-68897500D03*
X99695000Y-99695000D03*
X99700000Y-91500000D03*
%TO.N,Net-(CON1-Pad4)*%
X100965000Y-100965000D03*
X100985979Y-70167500D03*
X101110500Y-90170000D03*
%TO.N,Net-(CON1-Pad5)*%
X102255979Y-71437500D03*
X102235000Y-91757500D03*
X102235000Y-102235000D03*
%TO.N,Net-(CON1-Pad6)*%
X103505000Y-103505000D03*
X103504304Y-90172088D03*
X103525979Y-72707500D03*
%TO.N,Net-(CON1-Pad7)*%
X104775000Y-91757500D03*
X104795979Y-73977500D03*
X104775000Y-104775000D03*
%TO.N,Net-(CON1-Pad8)*%
X105899500Y-90170000D03*
X106065979Y-75247500D03*
X106045000Y-106045000D03*
%TO.N,Net-(CON1-Pad9)*%
X107315000Y-87947500D03*
X107315000Y-94297500D03*
X107335979Y-62865000D03*
%TO.N,Net-(CON1-Pad10)*%
X108605979Y-61595000D03*
X108583608Y-89216108D03*
X108579788Y-92794608D03*
%TO.N,Net-(CON1-Pad11)*%
X109875979Y-60325000D03*
X109865599Y-91353481D03*
X109855000Y-87312500D03*
%TO.N,Net-(CON1-Pad12)*%
X111145979Y-59055000D03*
X111125000Y-84944500D03*
X111125000Y-89852500D03*
%TO.N,Net-(CON1-Pad13)*%
X112415979Y-57785000D03*
X112395000Y-88582500D03*
X112395000Y-86188000D03*
%TO.N,Net-(CON1-Pad14)*%
X113689001Y-58965077D03*
X113668022Y-89762577D03*
X113665000Y-81597500D03*
%TO.N,Net-(CON1-Pad15)*%
X115080500Y-83412898D03*
X114955979Y-57785000D03*
X114935000Y-88582500D03*
%TO.N,Net-(CON1-Pad16)*%
X116205000Y-84772500D03*
X116227371Y-59055000D03*
X116206392Y-89852500D03*
%TO.N,/NEEDLE_*%
X91268000Y-80327500D03*
X90488892Y-66993892D03*
%TO.N,/NEEDLE*%
X95885000Y-69215000D03*
%TD*%
D42*
%TO.N,/M1_A3*%
X73977500Y-82512500D02*
X73977500Y-84137500D01*
X110413481Y-64211519D02*
X110413481Y-63538100D01*
X77750000Y-95280000D02*
X77750000Y-97365000D01*
X77726441Y-89511865D02*
X78199040Y-89984464D01*
X104397227Y-65771343D02*
X105117708Y-66491824D01*
X73977500Y-84137500D02*
X74930000Y-85090000D01*
X99127232Y-63609901D02*
X99904365Y-63609900D01*
X94547500Y-62547500D02*
X98064831Y-62547500D01*
X78966610Y-94063390D02*
X77750000Y-95280000D01*
X78199040Y-90480126D02*
X78966610Y-91247696D01*
X102122469Y-65050862D02*
X102899608Y-65050862D01*
X78966610Y-91247696D02*
X78966610Y-94063390D01*
X74930000Y-85090000D02*
X75733050Y-85090000D01*
X105894846Y-66491824D02*
X106566482Y-67163460D01*
X106566482Y-67163460D02*
X107407266Y-67163460D01*
X77726441Y-88046003D02*
X77726441Y-89511865D01*
X105117708Y-66491824D02*
X105894846Y-66491824D01*
X75733050Y-85090000D02*
X77152500Y-86509450D01*
X101401988Y-64330381D02*
X102122469Y-65050862D01*
X98064831Y-62547500D02*
X99127232Y-63609901D01*
X103620089Y-65771343D02*
X104397227Y-65771343D01*
X77152500Y-87472062D02*
X77726441Y-88046003D01*
X107434403Y-67190597D02*
X110413481Y-64211519D01*
X77152500Y-86509450D02*
X77152500Y-87472062D01*
X99904365Y-63609900D02*
X100624850Y-64330381D01*
X107407266Y-67163460D02*
X107434403Y-67190597D01*
X100624850Y-64330381D02*
X101401988Y-64330381D01*
X78199040Y-89984464D02*
X78199040Y-90480126D01*
X102899608Y-65050862D02*
X103620089Y-65771343D01*
X93800000Y-61800000D02*
X94547500Y-62547500D01*
%TO.N,/M1_A2*%
X77702020Y-87244444D02*
X77702020Y-86281832D01*
X92300000Y-60642500D02*
X92300000Y-62137500D01*
X107948974Y-68482305D02*
X107179649Y-67712980D01*
X78748560Y-89756846D02*
X78275961Y-89284247D01*
X101894851Y-65600382D02*
X101174370Y-64879901D01*
X103392471Y-66320863D02*
X102671990Y-65600382D01*
X92300000Y-62137500D02*
X93259520Y-63097020D01*
X110413479Y-69176900D02*
X110057879Y-69532500D01*
X108650423Y-68482305D02*
X107948974Y-68482305D01*
X76200000Y-84137500D02*
X75247500Y-83185000D01*
X78275961Y-89284247D02*
X78275960Y-87818384D01*
X78400000Y-95407138D02*
X79516130Y-94291008D01*
X109700617Y-69532500D02*
X108650423Y-68482305D01*
X93259520Y-63097020D02*
X97837212Y-63097020D01*
X75285000Y-81597500D02*
X75285000Y-83147500D01*
X79516129Y-93835771D02*
X79516129Y-91020077D01*
X77702020Y-86281832D02*
X76200000Y-84779812D01*
X105667228Y-67041344D02*
X104890090Y-67041344D01*
X104169609Y-66320863D02*
X103392471Y-66320863D01*
X98899612Y-64159420D02*
X98332596Y-63592404D01*
X78748560Y-90252508D02*
X78748560Y-89756846D01*
X75285000Y-83147500D02*
X75247500Y-83185000D01*
X110057879Y-69532500D02*
X109700617Y-69532500D01*
X76200000Y-84779812D02*
X76200000Y-84137500D01*
X78400000Y-97365000D02*
X78400000Y-95407138D01*
X79516130Y-94291008D02*
X79516129Y-93835771D01*
X97837212Y-63097020D02*
X98332596Y-63592404D01*
X79516129Y-91020077D02*
X78748560Y-90252508D01*
X99676748Y-64159420D02*
X98899612Y-64159420D01*
X107179649Y-67712980D02*
X106338864Y-67712980D01*
X98332596Y-63592404D02*
X98324622Y-63584429D01*
X101174370Y-64879901D02*
X100397233Y-64879901D01*
X100397233Y-64879901D02*
X99676748Y-64159420D01*
X104890090Y-67041344D02*
X104169609Y-66320863D01*
X78275960Y-87818384D02*
X77702020Y-87244444D01*
X102671990Y-65600382D02*
X101894851Y-65600382D01*
X106338864Y-67712980D02*
X105667228Y-67041344D01*
%TO.N,/M1_A1*%
X105439610Y-67590864D02*
X106111246Y-68262500D01*
X77470000Y-85272674D02*
X78251540Y-86054214D01*
X102444372Y-66149902D02*
X103164853Y-66870383D01*
X100946752Y-65429421D02*
X101667233Y-66149902D01*
X77190000Y-82550000D02*
X77190000Y-83857500D01*
X78251540Y-87016826D02*
X78825479Y-87590765D01*
X106952031Y-68262500D02*
X107721356Y-69031825D01*
X78825479Y-87590765D02*
X78825481Y-89056629D01*
X111063480Y-70290321D02*
X111063480Y-69176900D01*
X79298080Y-89529228D02*
X79298080Y-90024890D01*
X100169615Y-65429421D02*
X100946752Y-65429421D01*
X79050000Y-95534275D02*
X79050000Y-97365000D01*
X97780555Y-63817500D02*
X98671996Y-64708941D01*
X77470000Y-84137500D02*
X77470000Y-85272674D01*
X101667233Y-66149902D02*
X102444372Y-66149902D01*
X111015790Y-70338011D02*
X111063480Y-70290321D01*
X78825481Y-89056629D02*
X79298080Y-89529228D01*
X90900000Y-62000000D02*
X91385362Y-62000000D01*
X98671996Y-64708941D02*
X99449131Y-64708940D01*
X103941991Y-66870383D02*
X104662472Y-67590864D01*
X103164853Y-66870383D02*
X103941991Y-66870383D01*
X109728990Y-70338011D02*
X111015790Y-70338011D01*
X77190000Y-83857500D02*
X77470000Y-84137500D01*
X108422805Y-69031825D02*
X109728990Y-70338011D01*
X78251540Y-86054214D02*
X78251540Y-87016826D01*
X79298080Y-90024890D02*
X80065650Y-90792460D01*
X80065650Y-94518625D02*
X79050000Y-95534275D01*
X106111246Y-68262500D02*
X106952031Y-68262500D01*
X93202862Y-63817500D02*
X97780555Y-63817500D01*
X91385362Y-62000000D02*
X93202862Y-63817500D01*
X104662472Y-67590864D02*
X105439610Y-67590864D01*
X107721356Y-69031825D02*
X108422805Y-69031825D01*
X80065650Y-90792460D02*
X80065650Y-94518625D01*
X99449131Y-64708940D02*
X100169615Y-65429421D01*
%TO.N,/M1_A0*%
X79730000Y-84270000D02*
X79730000Y-82867500D01*
X97638417Y-64452500D02*
X98444378Y-65258461D01*
X92075000Y-64452500D02*
X97638417Y-64452500D01*
X106773254Y-68860861D02*
X107493738Y-69581345D01*
X79847600Y-89055100D02*
X79847600Y-89797272D01*
X79400000Y-84600000D02*
X78801060Y-85198940D01*
X79374998Y-87363146D02*
X79375000Y-88582500D01*
X91440000Y-63817500D02*
X92075000Y-64452500D01*
X111713479Y-70417460D02*
X111713479Y-69176900D01*
X103714373Y-67419903D02*
X104434854Y-68140384D01*
X107493738Y-69581345D02*
X108195187Y-69581345D01*
X79847600Y-89797272D02*
X80615170Y-90564842D01*
X80615170Y-90564842D02*
X80615170Y-94746243D01*
X102937235Y-67419903D02*
X103714373Y-67419903D01*
X79700000Y-95661413D02*
X79700000Y-97365000D01*
X78801060Y-85198940D02*
X78801060Y-86789208D01*
X78801060Y-86789208D02*
X79374998Y-87363146D01*
X99221514Y-65258460D02*
X99941996Y-65978941D01*
X79375000Y-88582500D02*
X79847600Y-89055100D01*
X100719134Y-65978941D02*
X101439615Y-66699422D01*
X102216754Y-66699422D02*
X102937235Y-67419903D01*
X98444378Y-65258461D02*
X99221514Y-65258460D01*
X104434854Y-68140384D02*
X105211992Y-68140384D01*
X105211992Y-68140384D02*
X105932469Y-68860861D01*
X80615170Y-94746243D02*
X79700000Y-95661413D01*
X111243408Y-70887531D02*
X111713479Y-70417460D01*
X99941996Y-65978941D02*
X100719134Y-65978941D01*
X105932469Y-68860861D02*
X106773254Y-68860861D01*
X101439615Y-66699422D02*
X102216754Y-66699422D01*
X109501371Y-70887530D02*
X111243408Y-70887531D01*
X108195187Y-69581345D02*
X109501371Y-70887530D01*
X79400000Y-84600000D02*
X79730000Y-84270000D01*
%TO.N,SDA*%
X71437500Y-63182500D02*
X72229022Y-63182500D01*
X72229022Y-63182500D02*
X72625000Y-62786522D01*
X72010000Y-77190000D02*
X71400000Y-77800000D01*
X73920000Y-77190000D02*
X72010000Y-77190000D01*
X70167500Y-90805000D02*
X70167500Y-90487500D01*
X72866250Y-92075000D02*
X73977500Y-93186250D01*
X68800000Y-85400000D02*
X68500000Y-85100000D01*
X73977500Y-94472862D02*
X74209520Y-94704882D01*
X68500000Y-85100000D02*
X66300000Y-85100000D01*
X64800000Y-77900000D02*
X64400000Y-77500000D01*
X70485000Y-62230000D02*
X71437500Y-63182500D01*
X69850000Y-62865000D02*
X70485000Y-62230000D01*
X81359638Y-101282500D02*
X82950000Y-102872862D01*
X82950000Y-102872862D02*
X82950000Y-104565000D01*
X69850000Y-63220000D02*
X69850000Y-62865000D01*
X76517500Y-101282500D02*
X81359638Y-101282500D01*
X68800000Y-87100000D02*
X68800000Y-85400000D01*
X74209520Y-98974520D02*
X76517500Y-101282500D01*
X70167500Y-91122500D02*
X71120000Y-92075000D01*
X73977500Y-93186250D02*
X73977500Y-94472862D01*
X66300000Y-85100000D02*
X64800000Y-83600000D01*
X74209520Y-94704882D02*
X74209520Y-98974520D01*
X72625000Y-62786522D02*
X72625000Y-61487500D01*
X64800000Y-83600000D02*
X64800000Y-77900000D01*
X71120000Y-92075000D02*
X72866250Y-92075000D01*
X71400000Y-77800000D02*
X71425000Y-77825000D01*
X70167500Y-90805000D02*
X70167500Y-91122500D01*
%TO.N,SCL*%
X76200000Y-101917500D02*
X80962500Y-101917500D01*
X73395000Y-79000000D02*
X73920000Y-78475000D01*
X71800489Y-94660489D02*
X72579710Y-94660489D01*
X73660000Y-99377500D02*
X76200000Y-101917500D01*
X70800000Y-79000000D02*
X73395000Y-79000000D01*
X73094022Y-60007500D02*
X73275000Y-60188478D01*
X71120000Y-60410480D02*
X71522980Y-60007500D01*
X73920000Y-78475000D02*
X73920000Y-77840000D01*
X69532500Y-60642500D02*
X69764520Y-60410480D01*
X69532500Y-60642500D02*
X69532500Y-60960000D01*
X70167500Y-93027500D02*
X71800489Y-94660489D01*
X82300000Y-103255000D02*
X82300000Y-104565000D01*
X72579710Y-94660489D02*
X73660000Y-95740779D01*
X73660000Y-95740779D02*
X73660000Y-99377500D01*
X70000000Y-76600000D02*
X70000000Y-78200000D01*
X69764520Y-60410480D02*
X71120000Y-60410480D01*
X73275000Y-60188478D02*
X73275000Y-61487500D01*
X80962500Y-101917500D02*
X82300000Y-103255000D01*
X69532500Y-60960000D02*
X68580000Y-61912500D01*
X71522980Y-60007500D02*
X73094022Y-60007500D01*
X70000000Y-78200000D02*
X70800000Y-79000000D01*
X68580000Y-61912500D02*
X68580000Y-63220000D01*
%TO.N,VCC_5V*%
X117949858Y-60642500D02*
X118842500Y-61535142D01*
X80350000Y-106052226D02*
X80350000Y-104565000D01*
D43*
X95250000Y-104140000D02*
X95885000Y-104775000D01*
X66992500Y-74295000D02*
X66357500Y-74930000D01*
D42*
X68400000Y-68500000D02*
X68400000Y-69395000D01*
X68500000Y-67400000D02*
X68400000Y-67300000D01*
D43*
X67542500Y-80010000D02*
X67542500Y-79460000D01*
D44*
X77645000Y-80502500D02*
X76200000Y-79057500D01*
X76200000Y-74930000D02*
X75210000Y-73940000D01*
D43*
X93624500Y-77324500D02*
X94300000Y-78000000D01*
D44*
X118427500Y-59372500D02*
X118427500Y-60164858D01*
D42*
X82550000Y-85725000D02*
X82867500Y-86042500D01*
D44*
X52070000Y-86042500D02*
X65087500Y-86042500D01*
D42*
X68605000Y-69600000D02*
X68605000Y-70192500D01*
D44*
X57870000Y-72390000D02*
X58420000Y-72390000D01*
D42*
X71120000Y-64452500D02*
X71437500Y-64452500D01*
X69850000Y-64415000D02*
X69850000Y-64770000D01*
D43*
X68580000Y-74295000D02*
X66992500Y-74295000D01*
D44*
X76900000Y-78800000D02*
X76900000Y-75630000D01*
D43*
X96837500Y-103590000D02*
X96837500Y-103822500D01*
D42*
X68605000Y-70192500D02*
X68647500Y-70235000D01*
X83100000Y-85005000D02*
X83100000Y-84455000D01*
D43*
X98742500Y-103590000D02*
X98510000Y-103822500D01*
D42*
X93259520Y-90255480D02*
X92392500Y-91122500D01*
X68580000Y-64420000D02*
X68400000Y-64600000D01*
X73323660Y-62865000D02*
X75146522Y-62865000D01*
X117927500Y-74930000D02*
X117927500Y-75430000D01*
D44*
X117542500Y-90487500D02*
X117542500Y-91507500D01*
D42*
X73920000Y-73290000D02*
X73712500Y-73290000D01*
D44*
X117542500Y-91507500D02*
X118110000Y-92075000D01*
D42*
X68400000Y-65797500D02*
X68602500Y-66000000D01*
X73920000Y-74590000D02*
X74560000Y-74590000D01*
D44*
X81239794Y-106987020D02*
X80327500Y-106074726D01*
D43*
X67542500Y-75332500D02*
X68580000Y-74295000D01*
D42*
X118842500Y-92807500D02*
X118842500Y-94335600D01*
X72053660Y-64135000D02*
X73323660Y-62865000D01*
D44*
X76900000Y-75630000D02*
X76200000Y-74930000D01*
D42*
X117475000Y-76444201D02*
X117475000Y-75882500D01*
X70008750Y-64770000D02*
X70643750Y-64135000D01*
D44*
X58420000Y-72707500D02*
X58420000Y-72390000D01*
D43*
X67542500Y-81520000D02*
X67542500Y-79460000D01*
X98510000Y-103822500D02*
X97070000Y-103822500D01*
X57870000Y-73745000D02*
X57870000Y-72390000D01*
D42*
X114689969Y-86042500D02*
X111832469Y-83185000D01*
X95795697Y-90396855D02*
X95654322Y-90255480D01*
D43*
X59055000Y-74930000D02*
X57870000Y-73745000D01*
D44*
X57870000Y-72390000D02*
X59372500Y-72390000D01*
D42*
X95654322Y-90255480D02*
X93259520Y-90255480D01*
D43*
X95250000Y-102552500D02*
X95250000Y-104140000D01*
D42*
X69850000Y-64770000D02*
X70008750Y-64770000D01*
X91122500Y-91122500D02*
X90465001Y-90465001D01*
D44*
X60875000Y-72390000D02*
X59372500Y-72390000D01*
D42*
X117707500Y-105642500D02*
X117792500Y-105727500D01*
X111832469Y-83185000D02*
X109893064Y-83185000D01*
D43*
X90170000Y-77324500D02*
X93624500Y-77324500D01*
D42*
X81597500Y-84772500D02*
X81915000Y-84455000D01*
X68400000Y-67300000D02*
X68400000Y-68500000D01*
X83887500Y-85792500D02*
X83100000Y-85005000D01*
X71437500Y-64452500D02*
X71347500Y-64452500D01*
X106632584Y-79924520D02*
X106142500Y-79924520D01*
X70802500Y-64135000D02*
X71120000Y-64452500D01*
X109893064Y-83185000D02*
X106632584Y-79924520D01*
D43*
X71755000Y-74295000D02*
X72110000Y-73940000D01*
X96837500Y-103822500D02*
X95885000Y-104775000D01*
D42*
X118110000Y-92075000D02*
X118842500Y-92807500D01*
D43*
X72110000Y-73940000D02*
X73920000Y-73940000D01*
D42*
X117927500Y-75430000D02*
X117475000Y-75882500D01*
D44*
X118902358Y-59690000D02*
X117949858Y-60642500D01*
D42*
X118842500Y-61535142D02*
X118842500Y-63538100D01*
X83887500Y-86042500D02*
X83887500Y-85792500D01*
X68400000Y-69395000D02*
X68605000Y-69600000D01*
D44*
X80327500Y-106074726D02*
X80327500Y-106045000D01*
D43*
X71755000Y-74295000D02*
X68580000Y-74295000D01*
X66357500Y-74930000D02*
X59055000Y-74930000D01*
D42*
X90465001Y-90465001D02*
X90465001Y-89268300D01*
X82550000Y-85725000D02*
X81597500Y-85725000D01*
D44*
X118427500Y-60164858D02*
X117949858Y-60642500D01*
D42*
X116789200Y-77130001D02*
X117475000Y-76444201D01*
X84100000Y-86255000D02*
X83887500Y-86042500D01*
X77702500Y-80502500D02*
X77645000Y-80502500D01*
X117707500Y-104140000D02*
X117707500Y-105642500D01*
D44*
X59055000Y-74930000D02*
X53340000Y-74930000D01*
D42*
X80327500Y-86042500D02*
X80327500Y-86080000D01*
X81597500Y-86080000D02*
X81597500Y-84772500D01*
D44*
X53340000Y-74930000D02*
X52070000Y-76200000D01*
D43*
X97070000Y-103822500D02*
X96837500Y-103590000D01*
D42*
X82867500Y-86042500D02*
X82867500Y-86080000D01*
D43*
X67462500Y-81600000D02*
X67542500Y-81520000D01*
D42*
X68600000Y-66000000D02*
X68400000Y-66200000D01*
D44*
X84127020Y-106987020D02*
X81239794Y-106987020D01*
D42*
X68580000Y-64415000D02*
X68580000Y-64770000D01*
X75225000Y-62786522D02*
X75225000Y-61487500D01*
X92120598Y-73342500D02*
X92113100Y-73349998D01*
X75146522Y-62865000D02*
X75225000Y-62786522D01*
X81597500Y-86080000D02*
X81597500Y-85725000D01*
X73920000Y-73290000D02*
X74560000Y-73290000D01*
D44*
X76200000Y-79057500D02*
X76200000Y-74930000D01*
D42*
X83100000Y-84455000D02*
X81915000Y-84455000D01*
X68607500Y-67400000D02*
X68500000Y-67400000D01*
X68580000Y-64415000D02*
X68580000Y-64420000D01*
X84100000Y-87502500D02*
X84100000Y-86255000D01*
X117475000Y-86042500D02*
X114689969Y-86042500D01*
D44*
X52070000Y-76200000D02*
X52070000Y-86042500D01*
D42*
X80645000Y-85725000D02*
X80327500Y-86042500D01*
D44*
X84772500Y-107632500D02*
X84127020Y-106987020D01*
D42*
X68602500Y-68500000D02*
X68400000Y-68500000D01*
X68580000Y-64770000D02*
X69850000Y-64770000D01*
X81597500Y-85725000D02*
X80645000Y-85725000D01*
X68400000Y-64600000D02*
X68400000Y-65797500D01*
X92392500Y-91122500D02*
X91122500Y-91122500D01*
X70643750Y-64135000D02*
X70802500Y-64135000D01*
D44*
X119697500Y-59690000D02*
X118902358Y-59690000D01*
X75210000Y-73940000D02*
X73920000Y-73940000D01*
D42*
X68602500Y-66000000D02*
X68600000Y-66000000D01*
X106142500Y-79924520D02*
X106142500Y-80683100D01*
D44*
X74560000Y-73290000D02*
X75210000Y-73940000D01*
X74560000Y-74590000D02*
X75210000Y-73940000D01*
D42*
X94297500Y-73342500D02*
X92120598Y-73342500D01*
X80327500Y-106074726D02*
X80350000Y-106052226D01*
X70802500Y-64135000D02*
X72053660Y-64135000D01*
X68400000Y-66200000D02*
X68400000Y-67300000D01*
D43*
X67542500Y-79460000D02*
X67542500Y-75332500D01*
D42*
%TO.N,GND*%
X81800000Y-94302500D02*
X81800000Y-94300000D01*
X117428515Y-74149511D02*
X119234511Y-74149511D01*
X85407500Y-83185000D02*
X85725000Y-83502500D01*
D43*
X69617500Y-80010000D02*
X69532500Y-80010000D01*
D44*
X67700000Y-57100000D02*
X68200000Y-56600000D01*
D42*
X73595481Y-100582981D02*
X73595481Y-102897749D01*
D44*
X70200000Y-86327500D02*
X70167500Y-86360000D01*
D42*
X111692502Y-94335600D02*
X111692502Y-95817502D01*
X68647500Y-71370000D02*
X68637500Y-71380000D01*
X84137500Y-109855000D02*
X84308460Y-110025960D01*
D43*
X97070000Y-101282500D02*
X96837500Y-101515000D01*
D42*
X67692500Y-60007500D02*
X68322989Y-59377011D01*
D43*
X98742500Y-101515000D02*
X98340000Y-101515000D01*
D42*
X81800000Y-94300000D02*
X82100000Y-94000000D01*
D44*
X108585000Y-56832500D02*
X106752500Y-56832500D01*
D42*
X69800000Y-81600000D02*
X69850000Y-81650000D01*
X63500000Y-70802500D02*
X63500000Y-73025000D01*
X107315000Y-57395000D02*
X106752500Y-56832500D01*
X80925000Y-82867500D02*
X85090000Y-82867500D01*
D44*
X68580000Y-90170000D02*
X69851400Y-88898600D01*
D42*
X77787500Y-81597500D02*
X78263750Y-82073750D01*
X73920000Y-76540000D02*
X73365000Y-76540000D01*
D44*
X72715000Y-75890000D02*
X73920000Y-75890000D01*
X69850000Y-82867500D02*
X69850000Y-81650000D01*
X55245000Y-72390000D02*
X55207500Y-72352500D01*
D42*
X98417502Y-72700002D02*
X99067501Y-73350001D01*
X66015480Y-73049520D02*
X72072500Y-73049520D01*
X68322989Y-59377011D02*
X73763533Y-59377011D01*
X71300000Y-71900000D02*
X71997500Y-71900000D01*
X86040000Y-61000000D02*
X86495362Y-61000000D01*
X93222825Y-93857825D02*
X91830650Y-95250000D01*
D44*
X119800000Y-110900000D02*
X120100000Y-110600000D01*
D42*
X105727500Y-96520000D02*
X105727500Y-96800000D01*
X92710000Y-93980000D02*
X92414999Y-93684999D01*
X97751900Y-72700002D02*
X98417502Y-72700002D01*
D44*
X70200000Y-84805000D02*
X70200000Y-86327500D01*
D42*
X98108900Y-77152500D02*
X100154638Y-77152500D01*
X87312500Y-83185000D02*
X88582500Y-83185000D01*
D44*
X67945000Y-93662500D02*
X67800000Y-93807500D01*
D42*
X64135000Y-73660000D02*
X65405000Y-73660000D01*
X92414999Y-93684999D02*
X92414999Y-93611700D01*
X73977500Y-80962500D02*
X74295000Y-80645000D01*
X70200000Y-88800000D02*
X70167500Y-88832500D01*
X106045000Y-96233424D02*
X106306893Y-95971531D01*
D44*
X51355489Y-112315489D02*
X51355489Y-87630000D01*
D42*
X72662011Y-99649511D02*
X73595481Y-100582981D01*
D44*
X103420000Y-64367500D02*
X103822500Y-64770000D01*
X71100000Y-71697500D02*
X68637500Y-71697500D01*
D42*
X85725000Y-93975000D02*
X85725000Y-105410000D01*
X99896637Y-73350001D02*
X99067501Y-73350001D01*
X68580000Y-93345000D02*
X69532500Y-94297500D01*
X120015000Y-101600000D02*
X118821251Y-101600000D01*
D44*
X73025000Y-113030000D02*
X70485000Y-113030000D01*
D42*
X73342500Y-89852500D02*
X73342500Y-91122500D01*
X76480000Y-81597500D02*
X77787500Y-81597500D01*
D44*
X67800000Y-111500000D02*
X67800000Y-111900000D01*
D42*
X73500000Y-71900000D02*
X74302500Y-71900000D01*
X86995000Y-61315000D02*
X86995000Y-60500362D01*
X118821251Y-101600000D02*
X118192499Y-100971248D01*
X85800000Y-79900000D02*
X85800000Y-81500000D01*
X95200000Y-82700000D02*
X96300000Y-82700000D01*
X74397500Y-71395000D02*
X74602500Y-71600000D01*
D44*
X95250000Y-113030000D02*
X117670000Y-113030000D01*
X70167500Y-88767500D02*
X70167500Y-86360000D01*
D42*
X118192499Y-98507499D02*
X118192499Y-99974400D01*
X108585000Y-95567500D02*
X111442500Y-95567500D01*
X106045000Y-96233424D02*
X106014076Y-96233424D01*
X88577989Y-109542011D02*
X88577989Y-94472971D01*
D44*
X67692500Y-57107500D02*
X67700000Y-57100000D01*
D42*
X73025000Y-84455000D02*
X69850000Y-84455000D01*
X106306893Y-95971531D02*
X108180969Y-95971531D01*
X86325000Y-79375000D02*
X85800000Y-79900000D01*
X85700000Y-94000000D02*
X85725000Y-93975000D01*
D44*
X69851400Y-88898600D02*
X70167500Y-88898600D01*
D42*
X105765000Y-97180457D02*
X106374543Y-97790000D01*
X85022500Y-86042500D02*
X85022500Y-84607500D01*
D45*
X54292500Y-71120000D02*
X54292500Y-72390000D01*
D44*
X95003000Y-98742500D02*
X95003000Y-98813000D01*
X68897500Y-113030000D02*
X68580000Y-112712500D01*
X80962500Y-103187500D02*
X80645000Y-102870000D01*
D45*
X63500000Y-70802500D02*
X63182500Y-70485000D01*
D42*
X73342500Y-84772500D02*
X73025000Y-84455000D01*
X88094040Y-110025960D02*
X88577989Y-109542011D01*
X76200000Y-80645000D02*
X76517500Y-80962500D01*
X65405000Y-73660000D02*
X66015480Y-73049520D01*
D44*
X73595481Y-111060481D02*
X73595481Y-102897749D01*
X73365000Y-76540000D02*
X72715000Y-75890000D01*
D42*
X80925000Y-82867500D02*
X80925000Y-82512500D01*
X85725000Y-105410000D02*
X86042500Y-105727500D01*
X84137500Y-108902500D02*
X84137500Y-109855000D01*
D44*
X55795000Y-72390000D02*
X55245000Y-72390000D01*
D42*
X73300000Y-71697500D02*
X73300000Y-71700000D01*
X119782500Y-104140000D02*
X119782500Y-101832500D01*
X105585362Y-95250000D02*
X106306893Y-95971531D01*
X105056522Y-84772500D02*
X105492499Y-85208477D01*
X98992502Y-82299998D02*
X99022155Y-82270345D01*
X100989039Y-74442403D02*
X99896637Y-73350001D01*
X89535000Y-95250000D02*
X88667980Y-94382980D01*
X70802500Y-99377500D02*
X71074511Y-99649511D01*
X85725000Y-92575000D02*
X85725000Y-93975000D01*
X93980000Y-92075000D02*
X93980000Y-93100650D01*
X97751900Y-73350001D02*
X99067501Y-73350001D01*
X93222825Y-93857825D02*
X93100650Y-93980000D01*
X72200000Y-71700000D02*
X72400000Y-71900000D01*
X82100000Y-94000000D02*
X83100000Y-94000000D01*
X119782500Y-101832500D02*
X120015000Y-101600000D01*
X80962500Y-103187500D02*
X81000000Y-103225000D01*
X73763533Y-59377011D02*
X74575000Y-60188478D01*
X70802500Y-85725000D02*
X72072500Y-85725000D01*
D44*
X117670000Y-113030000D02*
X119800000Y-110900000D01*
X68262500Y-93662500D02*
X67945000Y-93662500D01*
D42*
X83502500Y-108267500D02*
X84137500Y-108902500D01*
D44*
X67600000Y-70800000D02*
X67600000Y-60100000D01*
X70167500Y-84667500D02*
X70167500Y-86360000D01*
D42*
X72400000Y-71900000D02*
X73097500Y-71900000D01*
X69537500Y-81600000D02*
X69800000Y-81600000D01*
X83820000Y-109537500D02*
X84137500Y-109855000D01*
D44*
X52070000Y-113030000D02*
X51355489Y-112315489D01*
D42*
X114935000Y-77894859D02*
X114935000Y-76643026D01*
X71100000Y-71697500D02*
X71100000Y-71700000D01*
X106014076Y-96233424D02*
X105727500Y-96520000D01*
X71997500Y-71900000D02*
X72200000Y-71697500D01*
X93980000Y-93100650D02*
X93222825Y-93857825D01*
X105492499Y-85208477D02*
X105492499Y-86321900D01*
D44*
X73977500Y-113030000D02*
X73025000Y-113030000D01*
D42*
X70200000Y-88800000D02*
X70935000Y-89535000D01*
X98525002Y-82700000D02*
X98992502Y-82232500D01*
D44*
X80645000Y-102870000D02*
X74248866Y-102870000D01*
D42*
X74295000Y-80645000D02*
X76200000Y-80645000D01*
X86495362Y-61000000D02*
X86995000Y-60500362D01*
X73342500Y-89852500D02*
X73342500Y-84772500D01*
X68637500Y-71380000D02*
X68637500Y-71697500D01*
X70802500Y-95727650D02*
X70802500Y-99377500D01*
D44*
X74248866Y-102870000D02*
X73613866Y-103505000D01*
X68497500Y-71697500D02*
X67600000Y-70800000D01*
D42*
X85175000Y-83417500D02*
X85407500Y-83185000D01*
X91830650Y-95250000D02*
X89535000Y-95250000D01*
X96349389Y-78912011D02*
X98108900Y-77152500D01*
X100154638Y-77152500D02*
X100989039Y-76318099D01*
X73300000Y-71700000D02*
X73500000Y-71900000D01*
X73920000Y-75240000D02*
X73365000Y-75240000D01*
D44*
X103822500Y-64770000D02*
X104495000Y-64770000D01*
D42*
X120015000Y-75247500D02*
X120015000Y-75882500D01*
D44*
X70485000Y-113030000D02*
X69850000Y-113030000D01*
D42*
X102235000Y-57395000D02*
X102235000Y-56832500D01*
D44*
X55207500Y-72352500D02*
X55170000Y-72390000D01*
X75565000Y-113030000D02*
X73595481Y-111060481D01*
D42*
X83897500Y-94000000D02*
X85700000Y-94000000D01*
X74005453Y-59618931D02*
X73763533Y-59377011D01*
D44*
X68200000Y-56600000D02*
X68300000Y-56600000D01*
D42*
X74575000Y-60188478D02*
X74575000Y-61487500D01*
X93662500Y-79700000D02*
X94290000Y-79700000D01*
X84900000Y-81600000D02*
X85300000Y-82000000D01*
X103467500Y-95250000D02*
X105585362Y-95250000D01*
X71074511Y-99649511D02*
X72662011Y-99649511D01*
X119697500Y-74930000D02*
X120015000Y-75247500D01*
D44*
X68650489Y-75849511D02*
X69300000Y-75200000D01*
D42*
X74597500Y-70500000D02*
X74397500Y-70700000D01*
X83100000Y-94000000D02*
X83897500Y-94000000D01*
X88667980Y-94382980D02*
X88667980Y-83270480D01*
D44*
X69200000Y-83700000D02*
X70167500Y-84667500D01*
D42*
X85800000Y-81500000D02*
X85300000Y-82000000D01*
X112445800Y-79079999D02*
X113749860Y-79079999D01*
X78263750Y-82073750D02*
X78385000Y-82195000D01*
D43*
X95250000Y-101417500D02*
X95250000Y-100647500D01*
D42*
X108180969Y-95971531D02*
X108585000Y-95567500D01*
D44*
X69850000Y-84455000D02*
X70200000Y-84805000D01*
X68637500Y-71697500D02*
X68497500Y-71697500D01*
D43*
X98107500Y-101282500D02*
X97070000Y-101282500D01*
D42*
X106374543Y-97790000D02*
X107670000Y-97790000D01*
D44*
X68580000Y-93345000D02*
X68580000Y-90170000D01*
D42*
X104775000Y-57395000D02*
X104775000Y-56832500D01*
X69532500Y-94297500D02*
X70342862Y-94297500D01*
D44*
X73595481Y-103486615D02*
X73595481Y-102897749D01*
D42*
X85725000Y-83502500D02*
X85725000Y-92575000D01*
D44*
X108902500Y-57150000D02*
X108585000Y-56832500D01*
D42*
X86042500Y-105727500D02*
X86042500Y-110009420D01*
D44*
X102235000Y-56832500D02*
X100257500Y-56832500D01*
X90662862Y-56832500D02*
X100257500Y-56832500D01*
D42*
X88667980Y-80268759D02*
X87774221Y-79375000D01*
X94600000Y-83300000D02*
X95200000Y-82700000D01*
D45*
X54927500Y-70485000D02*
X54292500Y-71120000D01*
D42*
X85022500Y-84607500D02*
X85175000Y-84455000D01*
X73097500Y-71900000D02*
X73300000Y-71697500D01*
X71100000Y-71700000D02*
X71300000Y-71900000D01*
D44*
X68580000Y-93345000D02*
X68262500Y-93662500D01*
D42*
X98992502Y-80683100D02*
X98992502Y-82299998D01*
X99022155Y-82270345D02*
X101524310Y-84772500D01*
X73342500Y-91122500D02*
X74190004Y-91970004D01*
X100989039Y-76318099D02*
X100989039Y-74442403D01*
X108902500Y-57150000D02*
X109220000Y-56832500D01*
X116840000Y-97155000D02*
X118192499Y-98507499D01*
X114935000Y-76643026D02*
X117428515Y-74149511D01*
X88577989Y-94472971D02*
X88667980Y-94382980D01*
X76517500Y-81560000D02*
X76480000Y-81597500D01*
D44*
X68650489Y-78550489D02*
X68650489Y-75849511D01*
D42*
X111692502Y-95817502D02*
X113030000Y-97155000D01*
X85090000Y-82867500D02*
X85407500Y-83185000D01*
D43*
X96837500Y-101515000D02*
X96117500Y-101515000D01*
D42*
X78385000Y-82195000D02*
X78385000Y-82550000D01*
X111713481Y-65005002D02*
X113065979Y-66357500D01*
X73977500Y-81317500D02*
X73977500Y-80962500D01*
D44*
X63500000Y-72072500D02*
X63500000Y-70802500D01*
X120100000Y-110600000D02*
X120100000Y-104900000D01*
D42*
X85300000Y-82000000D02*
X85407500Y-82107500D01*
X120015000Y-74930000D02*
X120015000Y-75882500D01*
X93100650Y-93980000D02*
X92710000Y-93980000D01*
D44*
X102233960Y-63182500D02*
X101917500Y-62866040D01*
X68300000Y-56600000D02*
X90700000Y-56600000D01*
D42*
X86042500Y-110009420D02*
X86025960Y-110025960D01*
X80925000Y-82512500D02*
X80486250Y-82073750D01*
X83147500Y-108267500D02*
X83502500Y-108267500D01*
D44*
X71390000Y-75890000D02*
X72715000Y-75890000D01*
D42*
X87774221Y-79375000D02*
X86325000Y-79375000D01*
X111713481Y-63538100D02*
X111713481Y-65005002D01*
D44*
X62950000Y-72390000D02*
X63182500Y-72390000D01*
D42*
X70167500Y-88832500D02*
X70167500Y-88898600D01*
D44*
X95003000Y-98813000D02*
X95250000Y-99060000D01*
D43*
X98340000Y-101515000D02*
X98107500Y-101282500D01*
D44*
X55170000Y-72390000D02*
X54292500Y-72390000D01*
D42*
X70807011Y-94761649D02*
X70807011Y-95727650D01*
X118192499Y-67709999D02*
X118192499Y-69176900D01*
X84772500Y-106362500D02*
X81498478Y-106362500D01*
D44*
X73613866Y-103505000D02*
X73595481Y-103486615D01*
X67800000Y-93807500D02*
X67800000Y-111500000D01*
D45*
X63182500Y-70485000D02*
X54927500Y-70485000D01*
D44*
X67800000Y-111900000D02*
X68100000Y-112200000D01*
D42*
X72200000Y-71697500D02*
X72200000Y-71700000D01*
D44*
X55207500Y-67627500D02*
X54990000Y-67410000D01*
D42*
X105765000Y-96837500D02*
X105765000Y-97180457D01*
D44*
X69850000Y-84455000D02*
X69850000Y-82867500D01*
X95250000Y-113030000D02*
X73977500Y-113030000D01*
D42*
X73025000Y-89535000D02*
X73342500Y-89852500D01*
D44*
X104775000Y-56832500D02*
X102235000Y-56832500D01*
X118677500Y-90487500D02*
X118677500Y-88650000D01*
X69850000Y-81650000D02*
X69850000Y-79750000D01*
D42*
X70935000Y-89535000D02*
X73025000Y-89535000D01*
X120015000Y-66675000D02*
X119227498Y-66675000D01*
X83000000Y-94302500D02*
X83000000Y-94100000D01*
D43*
X95250000Y-100647500D02*
X95250000Y-98989500D01*
D42*
X119234511Y-74149511D02*
X120015000Y-74930000D01*
X119062500Y-74930000D02*
X119697500Y-74930000D01*
D45*
X63500000Y-70802500D02*
X67597500Y-70802500D01*
D44*
X103420000Y-63182500D02*
X102233960Y-63182500D01*
D42*
X74397500Y-70700000D02*
X74397500Y-71395000D01*
X113749860Y-79079999D02*
X114935000Y-77894859D01*
X86995000Y-60500362D02*
X90662862Y-56832500D01*
X118192499Y-100971248D02*
X118192499Y-99974400D01*
X119227498Y-66675000D02*
X118192499Y-67709999D01*
X113065979Y-66357500D02*
X116840000Y-66357500D01*
X83000000Y-94100000D02*
X83100000Y-94000000D01*
D44*
X67692500Y-60007500D02*
X67692500Y-57107500D01*
D42*
X74602500Y-70500000D02*
X74597500Y-70500000D01*
D44*
X73365000Y-75240000D02*
X72715000Y-75890000D01*
D42*
X96300000Y-82905000D02*
X96300000Y-82700000D01*
D44*
X69850000Y-79750000D02*
X68650489Y-78550489D01*
X70700000Y-75200000D02*
X71390000Y-75890000D01*
X69300000Y-75200000D02*
X70700000Y-75200000D01*
D42*
X86025960Y-110025960D02*
X88094040Y-110025960D01*
X116840000Y-66357500D02*
X118192499Y-67709999D01*
X85407500Y-82107500D02*
X85407500Y-83185000D01*
D44*
X63182500Y-72390000D02*
X63500000Y-72072500D01*
X120015000Y-75882500D02*
X120015000Y-61912500D01*
D42*
X95212500Y-112992500D02*
X95250000Y-113030000D01*
D43*
X96117500Y-101515000D02*
X95250000Y-100647500D01*
D44*
X69850000Y-113030000D02*
X52070000Y-113030000D01*
D42*
X85725000Y-105410000D02*
X84772500Y-106362500D01*
X81000000Y-103225000D02*
X81000000Y-104565000D01*
X105727500Y-96800000D02*
X105765000Y-96837500D01*
D43*
X95250000Y-98989500D02*
X95003000Y-98742500D01*
D42*
X83897500Y-94000000D02*
X84200000Y-94302500D01*
X85725000Y-61315000D02*
X86040000Y-61000000D01*
X80486250Y-82073750D02*
X78263750Y-82073750D01*
D44*
X70200000Y-88800000D02*
X70167500Y-88767500D01*
D42*
X94290000Y-79700000D02*
X95077989Y-78912011D01*
X101524310Y-84772500D02*
X105056522Y-84772500D01*
X70167500Y-86360000D02*
X70802500Y-85725000D01*
X111442500Y-95567500D02*
X111692502Y-95817502D01*
D44*
X68100000Y-83700000D02*
X69200000Y-83700000D01*
X103420000Y-63182500D02*
X103420000Y-64367500D01*
X118677500Y-88650000D02*
X118745000Y-88582500D01*
X67600000Y-60100000D02*
X67692500Y-60007500D01*
X69850000Y-113030000D02*
X68897500Y-113030000D01*
D42*
X88667980Y-83270480D02*
X88667980Y-80268759D01*
X85175000Y-84455000D02*
X85175000Y-83417500D01*
X84308460Y-110025960D02*
X86025960Y-110025960D01*
X76517500Y-80962500D02*
X76517500Y-81560000D01*
X88582500Y-83185000D02*
X88667980Y-83270480D01*
X96300000Y-82700000D02*
X98525002Y-82700000D01*
X84797500Y-81600000D02*
X84900000Y-81600000D01*
X92710000Y-112992500D02*
X95212500Y-112992500D01*
X74302500Y-71900000D02*
X74602500Y-71600000D01*
X113030000Y-97155000D02*
X116840000Y-97155000D01*
X81000000Y-105864022D02*
X81000000Y-104565000D01*
X63500000Y-73025000D02*
X64135000Y-73660000D01*
X81498478Y-106362500D02*
X81000000Y-105864022D01*
X95077989Y-78912011D02*
X96349389Y-78912011D01*
D44*
X106752500Y-56832500D02*
X104775000Y-56832500D01*
D42*
X100257500Y-56832500D02*
X99695000Y-57395000D01*
D45*
X67597500Y-70802500D02*
X67600000Y-70800000D01*
D42*
X70342862Y-94297500D02*
X70807011Y-94761649D01*
%TO.N,/M1_EN*%
X111471027Y-71437050D02*
X112363480Y-70544597D01*
X86270845Y-67138000D02*
X87451276Y-67138000D01*
X107266120Y-70130865D02*
X107967569Y-70130865D01*
X99714378Y-66528461D02*
X100491516Y-66528461D01*
X78422500Y-110172500D02*
X77152500Y-108902500D01*
X98993897Y-65807980D02*
X99714378Y-66528461D01*
X106545636Y-69410381D02*
X107266120Y-70130865D01*
X89501776Y-65087500D02*
X97496279Y-65087500D01*
X101211997Y-67248942D02*
X101989136Y-67248942D01*
X104984374Y-68689904D02*
X105704850Y-69410381D01*
X77750000Y-106397200D02*
X77152500Y-106994700D01*
X77750000Y-104565000D02*
X77750000Y-106397200D01*
X109273753Y-71437050D02*
X111471027Y-71437050D01*
X87451276Y-67138000D02*
X89501776Y-65087500D01*
X112363480Y-70544597D02*
X112363480Y-69176900D01*
X107967569Y-70130865D02*
X109273753Y-71437050D01*
X97496279Y-65087500D02*
X98216760Y-65807981D01*
X98216760Y-65807981D02*
X98993897Y-65807980D01*
X81915000Y-108267500D02*
X80010000Y-110172500D01*
X81952500Y-108267500D02*
X81915000Y-108267500D01*
X77152500Y-106994700D02*
X77152500Y-107632500D01*
X103486755Y-67969423D02*
X104207235Y-68689904D01*
X77152500Y-107632500D02*
X77152500Y-108902500D01*
X100491516Y-66528461D02*
X101211997Y-67248942D01*
X104207235Y-68689904D02*
X104984374Y-68689904D01*
X80010000Y-110172500D02*
X78422500Y-110172500D01*
X102709616Y-67969423D02*
X103486755Y-67969423D01*
X101989136Y-67248942D02*
X102709616Y-67969423D01*
X105704850Y-69410381D02*
X106545636Y-69410381D01*
%TO.N,/M2_A3*%
X97692502Y-81694998D02*
X97692502Y-80683100D01*
X75150000Y-93753540D02*
X75150000Y-97365000D01*
X76193540Y-92710000D02*
X75150000Y-93753540D01*
X75034996Y-92814996D02*
X75139992Y-92710000D01*
X92277020Y-82122980D02*
X97264520Y-82122980D01*
X75139992Y-92710000D02*
X76193540Y-92710000D01*
X97264520Y-82122980D02*
X97692502Y-81694998D01*
X92100000Y-82300000D02*
X92277020Y-82122980D01*
%TO.N,/M2_A2*%
X77318051Y-93175789D02*
X75800000Y-94693840D01*
X75557516Y-90487500D02*
X75925258Y-90855242D01*
X92869467Y-84110989D02*
X93385489Y-84627011D01*
X93385489Y-84627011D02*
X95504149Y-84627011D01*
X75800000Y-94693840D02*
X75800000Y-97365000D01*
X75929082Y-90855242D02*
X77318051Y-92244211D01*
X77318051Y-92244211D02*
X77318051Y-93175789D01*
X74892500Y-90487500D02*
X75557516Y-90487500D01*
X75925258Y-90855242D02*
X75929082Y-90855242D01*
X97199038Y-86321900D02*
X97692500Y-86321900D01*
X95504149Y-84627011D02*
X97199038Y-86321900D01*
%TO.N,/M2_A1*%
X95885000Y-85785000D02*
X95885000Y-86995000D01*
X75882500Y-88900000D02*
X75882500Y-89222200D01*
X76450000Y-94992500D02*
X76450000Y-97365000D01*
X98294811Y-87483011D02*
X98342501Y-87435321D01*
X75882500Y-89222200D02*
X77100000Y-90439700D01*
X77100000Y-90439700D02*
X77100000Y-90935362D01*
X92200000Y-86000000D02*
X92964511Y-85235489D01*
X74892500Y-88582500D02*
X75565000Y-88582500D01*
X92964511Y-85235489D02*
X95335489Y-85235489D01*
X95885000Y-86995000D02*
X96373011Y-87483011D01*
X75565000Y-88582500D02*
X75882500Y-88900000D01*
X77867571Y-91702933D02*
X77867571Y-93574929D01*
X77867571Y-93574929D02*
X76450000Y-94992500D01*
X98342501Y-87435321D02*
X98342501Y-86321900D01*
X77100000Y-90935362D02*
X77867571Y-91702933D01*
X96373011Y-87483011D02*
X98294811Y-87483011D01*
X95335489Y-85235489D02*
X95885000Y-85785000D01*
%TO.N,/M2_A0*%
X78417090Y-91475314D02*
X78417090Y-93802548D01*
X78417090Y-93802548D02*
X77100000Y-95119638D01*
X77176921Y-88273621D02*
X77176921Y-89739483D01*
X74892500Y-86677500D02*
X75580800Y-86677500D01*
X75898300Y-86995000D02*
X77176921Y-88273621D01*
X95652531Y-88032531D02*
X98522429Y-88032531D01*
X75580800Y-86677500D02*
X75898300Y-86995000D01*
X77100000Y-95119638D02*
X77100000Y-97365000D01*
X77649520Y-90707744D02*
X78417090Y-91475314D01*
X94615000Y-86995000D02*
X95652531Y-88032531D01*
X98522429Y-88032531D02*
X98992500Y-87562460D01*
X98992500Y-87562460D02*
X98992500Y-86321900D01*
X77649520Y-90212082D02*
X77649520Y-90707744D01*
X77176921Y-89739483D02*
X77649520Y-90212082D01*
X94615000Y-86360000D02*
X94615000Y-86995000D01*
%TO.N,/M2_EN*%
X99642501Y-87689597D02*
X98750047Y-88582051D01*
X95884102Y-88582500D02*
X94426068Y-88582500D01*
X98750047Y-88582051D02*
X95884551Y-88582051D01*
X99642501Y-86321900D02*
X99642501Y-87689597D01*
X99000000Y-84100000D02*
X99642501Y-84742501D01*
X99642501Y-84742501D02*
X99642501Y-86321900D01*
X96300000Y-84100000D02*
X99000000Y-84100000D01*
X78422500Y-107315000D02*
X78400000Y-107292500D01*
X94426068Y-88582500D02*
X93840463Y-87996895D01*
X78400000Y-107292500D02*
X78400000Y-104565000D01*
X95884551Y-88582051D02*
X95884102Y-88582500D01*
%TO.N,/M3_A3*%
X99308399Y-93832409D02*
X94802516Y-93832410D01*
X105410000Y-94297500D02*
X99773490Y-94297500D01*
X107938139Y-95422011D02*
X106534511Y-95422011D01*
X110392502Y-94335600D02*
X109406218Y-94335600D01*
X109406218Y-94335600D02*
X108894799Y-94847019D01*
X106534511Y-95422011D02*
X105410000Y-94297500D01*
X90122146Y-110746440D02*
X80412980Y-110746440D01*
X77100000Y-106206414D02*
X77100000Y-104565000D01*
X99773490Y-94297500D02*
X99308399Y-93832409D01*
X75943560Y-109916060D02*
X75943560Y-107362854D01*
X94802516Y-93832410D02*
X91680409Y-96954517D01*
X108894799Y-94847019D02*
X108513131Y-94847019D01*
X80412980Y-110746440D02*
X76773940Y-110746440D01*
X81416060Y-110746440D02*
X80412980Y-110746440D01*
X91680409Y-96954517D02*
X91680409Y-109188177D01*
X91680409Y-109188177D02*
X90122146Y-110746440D01*
X76773940Y-110746440D02*
X75943560Y-109916060D01*
X108513131Y-94847019D02*
X107938139Y-95422011D01*
X75943560Y-107362854D02*
X77100000Y-106206414D01*
X82625000Y-109537500D02*
X81416060Y-110746440D01*
%TO.N,/M3_A2*%
X101153391Y-95677401D02*
X100376253Y-95677401D01*
X101873872Y-96397882D02*
X101153391Y-95677401D01*
X76370960Y-111295960D02*
X75394040Y-110319040D01*
X108629444Y-99279805D02*
X107927995Y-99279805D01*
X110392500Y-99974400D02*
X110036900Y-100330000D01*
X92229930Y-97182134D02*
X92229930Y-109415794D01*
X107158670Y-98510480D02*
X106317885Y-98510480D01*
X105646249Y-97838844D02*
X104869111Y-97838844D01*
X95030135Y-94381929D02*
X92229930Y-97182134D01*
X102651011Y-96397882D02*
X101873872Y-96397882D01*
X103371492Y-97118363D02*
X102651011Y-96397882D01*
X90349764Y-111295960D02*
X76370960Y-111295960D01*
X76450000Y-106079276D02*
X76450000Y-104565000D01*
X104148630Y-97118363D02*
X103371492Y-97118363D01*
X107927995Y-99279805D02*
X107158670Y-98510480D01*
X99080781Y-94381929D02*
X95030135Y-94381929D01*
X110392500Y-99974400D02*
X110392500Y-99280000D01*
X75394040Y-110319040D02*
X75394040Y-107135236D01*
X75394040Y-107135236D02*
X76450000Y-106079276D01*
X100376253Y-95677401D02*
X99080781Y-94381929D01*
X92229930Y-109415794D02*
X90349764Y-111295960D01*
X101580792Y-95250000D02*
X101153391Y-95677401D01*
X102272500Y-95250000D02*
X101580792Y-95250000D01*
X106317885Y-98510480D02*
X105646249Y-97838844D01*
X110036900Y-100330000D02*
X109679638Y-100330000D01*
X109679638Y-100330000D02*
X108629444Y-99279805D01*
X104869111Y-97838844D02*
X104148630Y-97118363D01*
%TO.N,Net-(D1-Pad2)*%
X96662138Y-57785000D02*
X98322138Y-59445000D01*
X96482500Y-57785000D02*
X96662138Y-57785000D01*
X98322138Y-59445000D02*
X99695000Y-59445000D01*
%TO.N,/M3_A1*%
X92779449Y-109643413D02*
X90577382Y-111845480D01*
X111042501Y-99974400D02*
X111042501Y-98977501D01*
X96202500Y-94931449D02*
X95257751Y-94931451D01*
X109855000Y-97790000D02*
X108865000Y-97790000D01*
X109708011Y-101135511D02*
X108401826Y-99829325D01*
X111042501Y-101087821D02*
X110994811Y-101135511D01*
X106090267Y-99060000D02*
X105418631Y-98388364D01*
X74844520Y-110579882D02*
X74844520Y-106907618D01*
X104641493Y-98388364D02*
X103921012Y-97667883D01*
X92779449Y-97409753D02*
X92779449Y-109643413D01*
X74844520Y-106907618D02*
X75800000Y-105952138D01*
X100148635Y-96226921D02*
X98853163Y-94931449D01*
X103143874Y-97667883D02*
X102423393Y-96947402D01*
X98853163Y-94931449D02*
X96202500Y-94931449D01*
X108401826Y-99829325D02*
X107700377Y-99829325D01*
X76110118Y-111845480D02*
X74844520Y-110579882D01*
X95257751Y-94931451D02*
X92779449Y-97409753D01*
X107700377Y-99829325D02*
X106931052Y-99060000D01*
X106931052Y-99060000D02*
X106090267Y-99060000D01*
X101646254Y-96947402D02*
X100925773Y-96226921D01*
X90577382Y-111845480D02*
X76110118Y-111845480D01*
X100925773Y-96226921D02*
X100148635Y-96226921D01*
X103921012Y-97667883D02*
X103143874Y-97667883D01*
X102423393Y-96947402D02*
X101646254Y-96947402D01*
X105418631Y-98388364D02*
X104641493Y-98388364D01*
X111042501Y-98977501D02*
X109855000Y-97790000D01*
X75800000Y-105952138D02*
X75800000Y-104565000D01*
X111042501Y-99974400D02*
X111042501Y-101087821D01*
X110994811Y-101135511D02*
X109708011Y-101135511D01*
%TO.N,/M3_A0*%
X109679638Y-96837500D02*
X106960000Y-96837500D01*
X74295000Y-106680000D02*
X75150000Y-105825000D01*
X106752275Y-99658361D02*
X105911490Y-99658361D01*
X103693394Y-98217403D02*
X102916256Y-98217403D01*
X111692500Y-99974400D02*
X111692500Y-101214960D01*
X105191013Y-98937884D02*
X104413875Y-98937884D01*
X102195775Y-97496922D02*
X101418636Y-97496922D01*
X102916256Y-98217403D02*
X102195775Y-97496922D01*
X99921017Y-96776441D02*
X98625546Y-95480970D01*
X93007067Y-110192933D02*
X90804998Y-112395000D01*
X100698155Y-96776441D02*
X99921017Y-96776441D01*
X111222429Y-101685031D02*
X109480392Y-101685030D01*
X108174208Y-100378845D02*
X107472759Y-100378845D01*
X111692500Y-101214960D02*
X111222429Y-101685031D01*
X95485370Y-95480970D02*
X93328969Y-97637371D01*
X74295000Y-110807500D02*
X74295000Y-106680000D01*
X93328969Y-97637371D02*
X93328968Y-109871033D01*
X104413875Y-98937884D02*
X103693394Y-98217403D01*
X107472759Y-100378845D02*
X106752275Y-99658361D01*
X93328968Y-109871033D02*
X93007067Y-110192933D01*
X105911490Y-99658361D02*
X105191013Y-98937884D01*
X90804998Y-112395000D02*
X75882500Y-112395000D01*
X98625546Y-95480970D02*
X95485370Y-95480970D01*
X111692500Y-98850362D02*
X109679638Y-96837500D01*
X101418636Y-97496922D02*
X100698155Y-96776441D01*
X75882500Y-112395000D02*
X74295000Y-110807500D01*
X109480392Y-101685030D02*
X108174208Y-100378845D01*
X111692500Y-99974400D02*
X111692500Y-98850362D01*
X75150000Y-105825000D02*
X75150000Y-104565000D01*
%TO.N,/M3_EN*%
X103465776Y-98766923D02*
X104186256Y-99487404D01*
X99693399Y-97325961D02*
X100470537Y-97325961D01*
X95712989Y-96030489D02*
X98397927Y-96030489D01*
X79692500Y-106680000D02*
X79050000Y-106037500D01*
X106524657Y-100207881D02*
X107245141Y-100928365D01*
X111450048Y-102234550D02*
X112342501Y-101342097D01*
X107245141Y-100928365D02*
X107946590Y-100928365D01*
X98397927Y-96030489D02*
X99693399Y-97325961D01*
X102688637Y-98766923D02*
X103465776Y-98766923D01*
X109252774Y-102234550D02*
X111450048Y-102234550D01*
X101191018Y-98046442D02*
X101968157Y-98046442D01*
X79050000Y-106037500D02*
X79050000Y-104565000D01*
X79692500Y-108585000D02*
X79692500Y-106680000D01*
X93878489Y-110909011D02*
X93878489Y-97864989D01*
X92710000Y-111797500D02*
X93625000Y-111797500D01*
X79302539Y-108974961D02*
X79692500Y-108585000D01*
X101968157Y-98046442D02*
X102688637Y-98766923D01*
X93662500Y-111125000D02*
X93878489Y-110909011D01*
X105683871Y-100207881D02*
X106524657Y-100207881D01*
X93625000Y-111797500D02*
X93662500Y-111760000D01*
X107946590Y-100928365D02*
X109252774Y-102234550D01*
X104963395Y-99487404D02*
X105683871Y-100207881D01*
X112342501Y-101342097D02*
X112342501Y-99974400D01*
X93878489Y-97864989D02*
X95712989Y-96030489D01*
X93662500Y-111760000D02*
X93662500Y-111125000D01*
X100470537Y-97325961D02*
X101191018Y-98046442D01*
X104186256Y-99487404D02*
X104963395Y-99487404D01*
%TO.N,Net-(C23-Pad1)*%
X88265000Y-76200000D02*
X87630000Y-76200000D01*
X85407500Y-75882500D02*
X85725000Y-75565000D01*
X85052500Y-75882500D02*
X85407500Y-75882500D01*
X92747500Y-76200000D02*
X88265000Y-76200000D01*
X85090000Y-74930000D02*
X85725000Y-75565000D01*
X85725000Y-71120000D02*
X87350000Y-71120000D01*
X87312500Y-75247500D02*
X86995000Y-75565000D01*
X82344022Y-75240000D02*
X83606522Y-73977500D01*
X85090000Y-73977500D02*
X85090000Y-71755000D01*
X85090000Y-74930000D02*
X85090000Y-73977500D01*
X86995000Y-75565000D02*
X85725000Y-75565000D01*
X81020000Y-75240000D02*
X82344022Y-75240000D01*
X83606522Y-73977500D02*
X85090000Y-73977500D01*
X85022500Y-74930000D02*
X85090000Y-74930000D01*
X85090000Y-71755000D02*
X85725000Y-71120000D01*
X87667500Y-75247500D02*
X87312500Y-75247500D01*
X87630000Y-76200000D02*
X86995000Y-75565000D01*
X87350000Y-71120000D02*
X87667500Y-71437500D01*
%TO.N,Net-(C23-Pad2)*%
X83820000Y-74930000D02*
X83820000Y-75845000D01*
X83820000Y-75845000D02*
X83857500Y-75882500D01*
X83887500Y-74930000D02*
X83820000Y-74930000D01*
X83850000Y-75890000D02*
X81020000Y-75890000D01*
X83857500Y-75882500D02*
X83850000Y-75890000D01*
%TO.N,Net-(IC1-Pad8)*%
X75357500Y-72500000D02*
X64880000Y-72500000D01*
X78800000Y-74100000D02*
X76957500Y-74100000D01*
X81020000Y-73290000D02*
X79610000Y-73290000D01*
X76957500Y-74100000D02*
X75357500Y-72500000D01*
X79610000Y-73290000D02*
X78800000Y-74100000D01*
%TO.N,Net-(IOEX1-Pad15)*%
X69800000Y-69600000D02*
X70300000Y-69600000D01*
X71687500Y-68400000D02*
X71975000Y-68687500D01*
X71500000Y-68400000D02*
X71687500Y-68400000D01*
X70300000Y-69600000D02*
X71500000Y-68400000D01*
X71975000Y-68687500D02*
X71100000Y-69562500D01*
X71100000Y-69562500D02*
X71100000Y-70502500D01*
%TO.N,Net-(IOEX1-Pad16)*%
X72200000Y-70411522D02*
X72200000Y-70502500D01*
X72625000Y-67388478D02*
X72546522Y-67310000D01*
X72625000Y-68687500D02*
X72625000Y-67388478D01*
X72625000Y-69986522D02*
X72200000Y-70411522D01*
X72546522Y-67310000D02*
X71390000Y-67310000D01*
X71390000Y-67310000D02*
X70200000Y-68500000D01*
X72625000Y-68687500D02*
X72625000Y-69986522D01*
X70200000Y-68500000D02*
X69797500Y-68500000D01*
%TO.N,Net-(IOEX1-Pad17)*%
X70442020Y-66760480D02*
X72774141Y-66760481D01*
X73275000Y-67261340D02*
X73275000Y-68687500D01*
X73275000Y-70477500D02*
X73300000Y-70502500D01*
X69802500Y-67400000D02*
X70442020Y-66760480D01*
X72774141Y-66760481D02*
X73275000Y-67261340D01*
X73275000Y-68687500D02*
X73275000Y-70477500D01*
%TO.N,Net-(IOEX1-Pad18)*%
X73925000Y-68687500D02*
X73925000Y-67134202D01*
X69797500Y-66000000D02*
X71544040Y-66000000D01*
X73925000Y-67134202D02*
X73001758Y-66210960D01*
X71544040Y-66000000D02*
X71755000Y-66210960D01*
X73001758Y-66210960D02*
X71755000Y-66210960D01*
%TO.N,Net-(IOEX2-Pad18)*%
X79100000Y-99800000D02*
X79100000Y-100000000D01*
X81500000Y-98800000D02*
X80100000Y-98800000D01*
X79600000Y-99300000D02*
X79100000Y-99800000D01*
X81650000Y-97365000D02*
X81650000Y-98650000D01*
X80100000Y-98800000D02*
X79600000Y-99300000D01*
X81650000Y-98650000D02*
X81500000Y-98800000D01*
X84100000Y-90600000D02*
X84100000Y-88697500D01*
%TO.N,Net-(IOEX2-Pad17)*%
X81100000Y-89000000D02*
X81000000Y-88900000D01*
X80327500Y-88227500D02*
X80327500Y-87275000D01*
X82300000Y-95997500D02*
X81800000Y-95497500D01*
X82300000Y-97365000D02*
X82300000Y-95997500D01*
X81000000Y-100100000D02*
X82300000Y-98800000D01*
X81000000Y-88900000D02*
X80645000Y-88900000D01*
X81100000Y-89000000D02*
X80327500Y-88227500D01*
X82300000Y-98800000D02*
X82300000Y-97365000D01*
%TO.N,/AS_4*%
X85269763Y-68433461D02*
X93165237Y-68433461D01*
X82100000Y-69800000D02*
X83903224Y-69800000D01*
X95481777Y-70750001D02*
X97751900Y-70750001D01*
X97751900Y-70750001D02*
X97842499Y-70750001D01*
X75797500Y-71600000D02*
X76300000Y-71600000D01*
X93165237Y-68433461D02*
X95481777Y-70750001D01*
X76525000Y-70141776D02*
X76525000Y-68687500D01*
X77300000Y-72600000D02*
X77300000Y-70916776D01*
X76300000Y-71600000D02*
X77300000Y-72600000D01*
X77300000Y-70916776D02*
X76525000Y-70141776D01*
X83903224Y-69800000D02*
X85269763Y-68433461D01*
%TO.N,/AS_1*%
X75875000Y-67388478D02*
X75875000Y-68687500D01*
X80010000Y-70715980D02*
X80584980Y-71290960D01*
X96572499Y-75299999D02*
X97751900Y-75299999D01*
X92937618Y-68982980D02*
X96202499Y-72247861D01*
X75797500Y-70500000D02*
X75875000Y-70422500D01*
X96202499Y-72247861D02*
X96202500Y-74930000D01*
X85497382Y-68982980D02*
X92937618Y-68982980D01*
X73185142Y-65585142D02*
X74987989Y-67387989D01*
X75875000Y-70422500D02*
X75875000Y-68687500D01*
X74987989Y-67387989D02*
X75874511Y-67387989D01*
X73185142Y-64930142D02*
X73185142Y-65585142D01*
X83189402Y-71290960D02*
X85497382Y-68982980D01*
X96202500Y-74930000D02*
X96572499Y-75299999D01*
X80584980Y-71290960D02*
X83189402Y-71290960D01*
X75874511Y-67387989D02*
X75875000Y-67388478D01*
%TO.N,/AS_2*%
X84923442Y-63524420D02*
X86995000Y-63524420D01*
X79327145Y-65661441D02*
X82786421Y-65661441D01*
X85725000Y-69532500D02*
X83417020Y-71840480D01*
X92710000Y-69532500D02*
X85725000Y-69532500D01*
X82786421Y-65661441D02*
X84923442Y-63524420D01*
X78600000Y-70600000D02*
X77825000Y-69825000D01*
X94965481Y-75299999D02*
X95652980Y-74612500D01*
X77825000Y-67163586D02*
X79327145Y-65661441D01*
X95652980Y-74612500D02*
X95652980Y-72475480D01*
X86995000Y-63524420D02*
X86995000Y-62510000D01*
X79285118Y-71840480D02*
X78600000Y-71155362D01*
X83417020Y-71840480D02*
X79285118Y-71840480D01*
X92113100Y-75299999D02*
X94965481Y-75299999D01*
X77825000Y-69825000D02*
X77825000Y-68687500D01*
X77825000Y-68687500D02*
X77825000Y-67163586D01*
X78600000Y-71155362D02*
X78600000Y-70600000D01*
X95652980Y-72475480D02*
X92710000Y-69532500D01*
%TO.N,/AS_3*%
X78050480Y-70890118D02*
X77175000Y-70014638D01*
X92113100Y-70750001D02*
X91738579Y-70375480D01*
X82558803Y-65111921D02*
X79099527Y-65111921D01*
X91738579Y-70375480D02*
X85692382Y-70375480D01*
X85725000Y-62510000D02*
X85725000Y-62575000D01*
X77175000Y-70014638D02*
X77175000Y-68687500D01*
X85325100Y-62974900D02*
X84695824Y-62974900D01*
X85725000Y-62575000D02*
X85325100Y-62974900D01*
X83677862Y-72390000D02*
X79057499Y-72389999D01*
X92113100Y-70750001D02*
X92444999Y-70750001D01*
X84695824Y-62974900D02*
X82558803Y-65111921D01*
X79099527Y-65111921D02*
X77175000Y-67036448D01*
X77175000Y-67036448D02*
X77175000Y-68687500D01*
X79057499Y-72389999D02*
X78050480Y-71382980D01*
X78050480Y-71382980D02*
X78050480Y-70890118D01*
X85692382Y-70375480D02*
X83677862Y-72390000D01*
%TO.N,Net-(D2-Pad2)*%
X97155000Y-59055000D02*
X96482500Y-59055000D01*
X98742500Y-60642500D02*
X97155000Y-59055000D01*
X102235000Y-59445000D02*
X101037500Y-60642500D01*
X101037500Y-60642500D02*
X98742500Y-60642500D01*
%TO.N,Net-(D3-Pad2)*%
X98514882Y-61192020D02*
X103027980Y-61192020D01*
X103027980Y-61192020D02*
X104775000Y-59445000D01*
X96482500Y-60325000D02*
X97647862Y-60325000D01*
X97647862Y-60325000D02*
X98514882Y-61192020D01*
%TO.N,Net-(D4-Pad2)*%
X96482500Y-61595000D02*
X96629040Y-61741540D01*
X105018460Y-61741540D02*
X107315000Y-59445000D01*
X96629040Y-61741540D02*
X105018460Y-61741540D01*
%TO.N,/GPIO_B0*%
X81000000Y-60100000D02*
X80425000Y-60675000D01*
X80425000Y-60675000D02*
X80425000Y-61487500D01*
X86000000Y-59800000D02*
X86800000Y-59000000D01*
X86000000Y-59800000D02*
X85700000Y-59800000D01*
X81900000Y-60100000D02*
X81000000Y-60100000D01*
X83100000Y-61300000D02*
X81900000Y-60100000D01*
X85700000Y-59800000D02*
X84200000Y-61300000D01*
X84200000Y-61300000D02*
X83100000Y-61300000D01*
%TO.N,/GPIO_B1*%
X84300000Y-59400000D02*
X84300000Y-59000000D01*
X83000000Y-59500000D02*
X83600000Y-60100000D01*
X79775000Y-60425000D02*
X80700000Y-59500000D01*
X83600000Y-60100000D02*
X84300000Y-59400000D01*
X79775000Y-61487500D02*
X79775000Y-60425000D01*
X80700000Y-59500000D02*
X83000000Y-59500000D01*
%TO.N,/GPIO_B2*%
X79125000Y-62670724D02*
X79125000Y-61487500D01*
X81800000Y-61800000D02*
X81800000Y-62061522D01*
X81800000Y-62061522D02*
X81061522Y-62800000D01*
X79254276Y-62800000D02*
X79125000Y-62670724D01*
X81061522Y-62800000D02*
X79254276Y-62800000D01*
%TO.N,/GPIO_B3*%
X78475000Y-61487500D02*
X78475000Y-59625000D01*
X78600000Y-59500000D02*
X78600000Y-57700000D01*
X78475000Y-59625000D02*
X78600000Y-59500000D01*
%TO.N,/GPIO_B4*%
X77825000Y-60425000D02*
X77400000Y-60000000D01*
X77400000Y-60000000D02*
X77200000Y-59800000D01*
X77825000Y-61487500D02*
X77825000Y-60425000D01*
X77200000Y-59100000D02*
X77200000Y-58900000D01*
X78524511Y-63624511D02*
X77825000Y-62925000D01*
X77200000Y-59800000D02*
X77200000Y-59100000D01*
X77825000Y-62925000D02*
X77825000Y-61487500D01*
X82000000Y-63800000D02*
X81824511Y-63624511D01*
X81824511Y-63624511D02*
X78524511Y-63624511D01*
%TO.N,/GPIO_B5*%
X77400000Y-64200000D02*
X77175000Y-63975000D01*
X74295000Y-58102500D02*
X74930000Y-58102500D01*
X77175000Y-63975000D02*
X77175000Y-61487500D01*
%TO.N,/GPIO_B6*%
X76525000Y-63252138D02*
X76525000Y-61487500D01*
X75300000Y-65900000D02*
X76100000Y-65100000D01*
X76100000Y-65100000D02*
X76100000Y-63677138D01*
X76100000Y-63677138D02*
X76525000Y-63252138D01*
%TO.N,/GPIO_B7*%
X74900000Y-64100000D02*
X75875000Y-63125000D01*
X75875000Y-63125000D02*
X75875000Y-61487500D01*
%TO.N,Net-(C17-Pad2)*%
X89677138Y-78740000D02*
X91640000Y-78740000D01*
X81280000Y-81280000D02*
X81600000Y-81600000D01*
X97965362Y-78105000D02*
X100685000Y-78105000D01*
X95567500Y-79692500D02*
X96377862Y-79692500D01*
X93022350Y-80962500D02*
X94297500Y-80962500D01*
X78897500Y-80502500D02*
X79675000Y-81280000D01*
X82720000Y-80717500D02*
X82720000Y-78080000D01*
X83819511Y-76980489D02*
X87917627Y-76980489D01*
X87917627Y-76980489D02*
X89677138Y-78740000D01*
X96377862Y-79692500D02*
X97965362Y-78105000D01*
X82720000Y-78080000D02*
X83819511Y-76980489D01*
X94297500Y-80962500D02*
X95567500Y-79692500D01*
X83602500Y-81600000D02*
X82720000Y-80717500D01*
X91640000Y-78740000D02*
X92500000Y-79600000D01*
X92500000Y-80440150D02*
X93022350Y-80962500D01*
X79675000Y-81280000D02*
X81280000Y-81280000D01*
X81600000Y-81600000D02*
X83602500Y-81600000D01*
X92500000Y-79600000D02*
X92500000Y-80440150D01*
%TO.N,VCC{slash}2*%
X112074700Y-87312500D02*
X109708119Y-89679081D01*
X114385480Y-77667241D02*
X113622720Y-78430001D01*
D44*
X118427500Y-58177500D02*
X118427500Y-57785000D01*
D42*
X118110000Y-87312500D02*
X112074700Y-87312500D01*
X114385480Y-76415408D02*
X114385480Y-77667241D01*
D44*
X106045000Y-63817500D02*
X106045000Y-64415000D01*
X105495000Y-63182500D02*
X105495000Y-63267500D01*
D42*
X99915628Y-93662500D02*
X99536018Y-93282890D01*
X113622720Y-78430001D02*
X112445800Y-78430001D01*
X109708119Y-89679081D02*
X109708119Y-89681897D01*
X109046581Y-90340619D02*
X107864520Y-91522680D01*
X109049397Y-90340619D02*
X109046581Y-90340619D01*
X95822889Y-93282889D02*
X95505389Y-93282889D01*
D44*
X119697500Y-57615000D02*
X117645000Y-57615000D01*
X105495000Y-63182500D02*
X105495000Y-63009612D01*
D42*
X94574897Y-93282891D02*
X91547788Y-96310000D01*
X116789200Y-82499200D02*
X118745000Y-84455000D01*
X107864520Y-91522680D02*
X107864519Y-91525481D01*
X118745000Y-84455000D02*
X118745000Y-86677500D01*
X91547788Y-96310000D02*
X89850000Y-96310000D01*
D44*
X117645000Y-57615000D02*
X117475000Y-57785000D01*
D42*
X105727500Y-93662500D02*
X99915628Y-93662500D01*
D44*
X111989612Y-56515000D02*
X119306250Y-56515000D01*
X119697500Y-56906250D02*
X119697500Y-57615000D01*
X105495000Y-63009612D02*
X111989612Y-56515000D01*
D42*
X116789200Y-79079999D02*
X116789200Y-82499200D01*
X118745000Y-86677500D02*
X118110000Y-87312500D01*
D44*
X119306250Y-56515000D02*
X119697500Y-56906250D01*
D42*
X117775888Y-73025000D02*
X114385480Y-76415408D01*
X109708119Y-89681897D02*
X109049397Y-90340619D01*
D44*
X106045000Y-64415000D02*
X105690000Y-64770000D01*
D42*
X118745000Y-73025000D02*
X117775888Y-73025000D01*
X99536018Y-93282890D02*
X95822889Y-93282889D01*
D44*
X118427500Y-57785000D02*
X117475000Y-57785000D01*
D42*
X107864519Y-91525481D02*
X105727500Y-93662500D01*
X95822889Y-93282889D02*
X94574897Y-93282891D01*
D44*
X105495000Y-63267500D02*
X106045000Y-63817500D01*
D42*
%TO.N,/SIG_MEAS_Z*%
X119869511Y-89362989D02*
X119869511Y-83357011D01*
X118842500Y-98645000D02*
X119697500Y-97790000D01*
X119869511Y-83357011D02*
X118427500Y-81915000D01*
X118842500Y-99974400D02*
X118842500Y-98645000D01*
X119697500Y-97790000D02*
X119697500Y-89535000D01*
X118427500Y-81915000D02*
X118427500Y-80962500D01*
X119697500Y-89535000D02*
X119869511Y-89362989D01*
%TO.N,Net-(OPA1-Pad2)*%
X111450001Y-77779999D02*
X111125000Y-78105000D01*
X102832500Y-77152500D02*
X101880000Y-78105000D01*
X108865000Y-78067500D02*
X107950000Y-77152500D01*
X110807500Y-78067500D02*
X108865000Y-78067500D01*
X107950000Y-77152500D02*
X102832500Y-77152500D01*
X111125000Y-78105000D02*
X110845000Y-78105000D01*
X110845000Y-78105000D02*
X110807500Y-78067500D01*
X112445800Y-77779999D02*
X111450001Y-77779999D01*
%TO.N,Net-(OPA1-Pad6)*%
X118427500Y-78702500D02*
X118427500Y-79767500D01*
X118390000Y-78740000D02*
X118427500Y-78702500D01*
X116789200Y-78430001D02*
X117800001Y-78430001D01*
X117800001Y-78430001D02*
X118110000Y-78740000D01*
X118110000Y-78740000D02*
X118390000Y-78740000D01*
%TO.N,/LED_red*%
X83014039Y-66210961D02*
X79554763Y-66210961D01*
X87373560Y-64073940D02*
X85151060Y-64073940D01*
X87940898Y-63506602D02*
X87373560Y-64073940D01*
X85151060Y-64073940D02*
X83014039Y-66210961D01*
X79554763Y-66210961D02*
X78475000Y-67290724D01*
X78475000Y-67290724D02*
X78475000Y-68687500D01*
X90487500Y-57785000D02*
X87940898Y-60331602D01*
X95287500Y-57785000D02*
X90487500Y-57785000D01*
X87940898Y-60331602D02*
X87940898Y-63506602D01*
%TO.N,/AS1_S1*%
X102235000Y-79057500D02*
X103566058Y-77726442D01*
X97790000Y-79057500D02*
X102235000Y-79057500D01*
X110314638Y-80327500D02*
X111162500Y-80327500D01*
X96837500Y-80327500D02*
X96837500Y-80010000D01*
X100439520Y-74722020D02*
X100050000Y-74332500D01*
X99362499Y-73999999D02*
X97751900Y-73999999D01*
X96837500Y-80010000D02*
X97790000Y-79057500D01*
X100439520Y-76090480D02*
X100439520Y-74722020D01*
X100012500Y-76517500D02*
X100439520Y-76090480D01*
X99695000Y-74332500D02*
X99362499Y-73999999D01*
X96982500Y-76517500D02*
X100012500Y-76517500D01*
X96100000Y-77400000D02*
X96982500Y-76517500D01*
X107713579Y-77726441D02*
X110314638Y-80327500D01*
X103566058Y-77726442D02*
X107713579Y-77726441D01*
X100050000Y-74332500D02*
X99695000Y-74332500D01*
X96202500Y-80962500D02*
X96837500Y-80327500D01*
%TO.N,/AS1_S4*%
X99022500Y-72352500D02*
X98720001Y-72050001D01*
X102907500Y-75285000D02*
X100012500Y-72390000D01*
X99695000Y-72352500D02*
X99022500Y-72352500D01*
X102907500Y-75882500D02*
X102907500Y-75285000D01*
X99695000Y-72352500D02*
X99980750Y-72352500D01*
X98720001Y-72050001D02*
X97751900Y-72050001D01*
%TO.N,/AS1_S3*%
X88862500Y-72707500D02*
X89217500Y-72352500D01*
X90842500Y-72352500D02*
X91144999Y-72050001D01*
X91144999Y-72050001D02*
X92113100Y-72050001D01*
X90170000Y-72352500D02*
X90842500Y-72352500D01*
X89217500Y-72352500D02*
X90170000Y-72352500D01*
%TO.N,/AS1_S2*%
X91144999Y-73999999D02*
X92113100Y-73999999D01*
X90842500Y-73697500D02*
X91144999Y-73999999D01*
X88862500Y-73977500D02*
X89142500Y-73697500D01*
X90170000Y-73697500D02*
X90842500Y-73697500D01*
X89142500Y-73697500D02*
X90170000Y-73697500D01*
%TO.N,Net-(OPA1-Pad7)*%
X116781699Y-77787500D02*
X115819497Y-77787500D01*
X113279497Y-80327500D02*
X112357500Y-80327500D01*
X118390000Y-77470000D02*
X118427500Y-77507500D01*
X116789200Y-77779999D02*
X117800001Y-77779999D01*
X118110000Y-77470000D02*
X118390000Y-77470000D01*
X116789200Y-77779999D02*
X116781699Y-77787500D01*
X115819497Y-77787500D02*
X113279497Y-80327500D01*
X117800001Y-77779999D02*
X118110000Y-77470000D01*
%TO.N,Net-(OPA2-Pad1)*%
X85725000Y-78740000D02*
X87947500Y-78740000D01*
X87350000Y-74295000D02*
X87667500Y-73977500D01*
X91122500Y-94615000D02*
X91122500Y-93619201D01*
X89400000Y-80192500D02*
X89400000Y-94162500D01*
X84455000Y-80010000D02*
X85725000Y-78740000D01*
X90487500Y-94615000D02*
X91122500Y-94615000D01*
X91122500Y-93619201D02*
X91114999Y-93611700D01*
X86360000Y-74295000D02*
X87350000Y-74295000D01*
X89852500Y-94615000D02*
X90487500Y-94615000D01*
X90465001Y-94592501D02*
X90487500Y-94615000D01*
X90465001Y-93611700D02*
X90465001Y-94592501D01*
X89400000Y-94162500D02*
X89852500Y-94615000D01*
X87947500Y-78740000D02*
X89400000Y-80192500D01*
%TO.N,/SIG_MEAS_V*%
X107315000Y-89852500D02*
X107315000Y-90487500D01*
X105410000Y-93027500D02*
X100057766Y-93027500D01*
X107315000Y-90487500D02*
X106045000Y-91757500D01*
X106045000Y-91757500D02*
X106045000Y-92392500D01*
X106142500Y-86321900D02*
X106142500Y-88680000D01*
X99763636Y-92733370D02*
X96384619Y-92733369D01*
X106045000Y-92392500D02*
X105410000Y-93027500D01*
X93487138Y-90805000D02*
X91765001Y-92527137D01*
X100057766Y-93027500D02*
X99763636Y-92733370D01*
X91765001Y-92527137D02*
X91765001Y-93611700D01*
X106142500Y-88680000D02*
X107315000Y-89852500D01*
X94456250Y-90805000D02*
X93487138Y-90805000D01*
X96384619Y-92733369D02*
X94456250Y-90805000D01*
%TO.N,Net-(OPA2-Pad6)*%
X86360000Y-72390000D02*
X87350000Y-72390000D01*
X90084520Y-79924520D02*
X90084520Y-87242022D01*
X87350000Y-72390000D02*
X87667500Y-72707500D01*
X91122500Y-88265000D02*
X91757500Y-88265000D01*
X91765001Y-88272501D02*
X91765001Y-89268300D01*
X84455000Y-78105000D02*
X88265000Y-78105000D01*
X90084520Y-87242022D02*
X91114999Y-88272501D01*
X88265000Y-78105000D02*
X90084520Y-79924520D01*
X91114999Y-88272501D02*
X91114999Y-89268300D01*
%TO.N,/LED_yellow*%
X79125000Y-68687500D02*
X79125000Y-67417862D01*
X88490418Y-60559220D02*
X90715118Y-58334520D01*
X80237619Y-66760481D02*
X83241657Y-66760481D01*
X87601178Y-64623460D02*
X88490417Y-63734221D01*
X94212020Y-58334520D02*
X94932500Y-59055000D01*
X88490417Y-63734221D02*
X88490418Y-60559220D01*
X79125000Y-67417862D02*
X79782382Y-66760480D01*
X83241657Y-66760481D02*
X85378678Y-64623460D01*
X94932500Y-59055000D02*
X95287500Y-59055000D01*
X79782382Y-66760480D02*
X80237619Y-66760481D01*
X85378678Y-64623460D02*
X87601178Y-64623460D01*
X90715118Y-58334520D02*
X94212020Y-58334520D01*
%TO.N,/LED_green*%
X87862020Y-65172980D02*
X89039939Y-63995061D01*
X90942736Y-58884040D02*
X93846540Y-58884040D01*
X85606296Y-65172980D02*
X87862020Y-65172980D01*
X80010001Y-67310001D02*
X83469275Y-67310001D01*
X83469275Y-67310001D02*
X85606296Y-65172980D01*
X89039939Y-63995061D02*
X89039939Y-60786837D01*
X93846540Y-58884040D02*
X95287500Y-60325000D01*
X89039939Y-60786837D02*
X90942736Y-58884040D01*
X79775000Y-67545000D02*
X80010001Y-67310001D01*
X79775000Y-68687500D02*
X79775000Y-67545000D01*
%TO.N,/LED_blue*%
X95287500Y-61531522D02*
X93189538Y-59433560D01*
X93189538Y-59433560D02*
X91170354Y-59433560D01*
X89589459Y-61014455D02*
X89589458Y-64222680D01*
X89589458Y-64222680D02*
X88089638Y-65722500D01*
X88089638Y-65722500D02*
X85833914Y-65722500D01*
X83696893Y-67859521D02*
X81252979Y-67859521D01*
X91170354Y-59433560D02*
X89589459Y-61014455D01*
X95287500Y-61595000D02*
X95287500Y-61531522D01*
X85833914Y-65722500D02*
X83696893Y-67859521D01*
X81252979Y-67859521D02*
X80425000Y-68687500D01*
%TO.N,/AS1_D1*%
X99695000Y-75527500D02*
X99254520Y-75967980D01*
X98650001Y-74650001D02*
X99100000Y-75100000D01*
X97751900Y-74650001D02*
X98650001Y-74650001D01*
X96400000Y-76200000D02*
X93942500Y-76200000D01*
X99327500Y-75527500D02*
X99695000Y-75527500D01*
X96632020Y-75967980D02*
X96400000Y-76200000D01*
X99100000Y-75300000D02*
X99327500Y-75527500D01*
X97789401Y-74612500D02*
X97751900Y-74650001D01*
X99100000Y-75100000D02*
X99100000Y-75300000D01*
X99254520Y-75967980D02*
X96632020Y-75967980D01*
%TO.N,/AS1_D4*%
X97789398Y-71437500D02*
X97751900Y-71400002D01*
X99695000Y-70802500D02*
X99695000Y-71157500D01*
X99695000Y-71157500D02*
X99022500Y-71157500D01*
X98425000Y-69532500D02*
X99695000Y-70802500D01*
X98742500Y-71437500D02*
X97789398Y-71437500D01*
X99022500Y-71157500D02*
X98742500Y-71437500D01*
X98107500Y-69532500D02*
X98425000Y-69532500D01*
%TO.N,/AS1_D3*%
X90170000Y-71157500D02*
X89142500Y-71157500D01*
X89142500Y-71157500D02*
X88862500Y-71437500D01*
X90170000Y-71157500D02*
X90842500Y-71157500D01*
X92075599Y-71437500D02*
X92113100Y-71399999D01*
X91122500Y-71437500D02*
X92075599Y-71437500D01*
X90842500Y-71157500D02*
X91122500Y-71437500D01*
%TO.N,/AS1_D2*%
X92075602Y-74612500D02*
X92113100Y-74649998D01*
X90170000Y-74892500D02*
X90842500Y-74892500D01*
X90842500Y-74892500D02*
X91122500Y-74612500D01*
X89815000Y-75247500D02*
X88862500Y-75247500D01*
X90170000Y-74892500D02*
X89815000Y-75247500D01*
X91122500Y-74612500D02*
X92075602Y-74612500D01*
%TO.N,Net-(C17-Pad1)*%
X79375000Y-78740000D02*
X79375000Y-74910978D01*
X79695978Y-74590000D02*
X81020000Y-74590000D01*
X79375000Y-74910978D02*
X79695978Y-74590000D01*
X80645000Y-80010000D02*
X79375000Y-78740000D01*
%TO.N,Net-(IOEX2-Pad16)*%
X82950000Y-97365000D02*
X82950000Y-95612500D01*
X82950000Y-98664022D02*
X82950000Y-97365000D01*
X82950000Y-95612500D02*
X82867500Y-95530000D01*
X81900000Y-90150000D02*
X82404511Y-89645489D01*
X82404511Y-89645489D02*
X82404511Y-88082011D01*
X82975500Y-98689522D02*
X82950000Y-98664022D01*
X81900000Y-92500000D02*
X81900000Y-90150000D01*
X82404511Y-88082011D02*
X81597500Y-87275000D01*
X82975500Y-100300000D02*
X82975500Y-98689522D01*
%TO.N,Net-(IOEX2-Pad15)*%
X82700000Y-91300000D02*
X82700000Y-90127138D01*
X82954031Y-87854393D02*
X82867500Y-87767862D01*
X83600000Y-97365000D02*
X83600000Y-96097500D01*
X83600000Y-96097500D02*
X84200000Y-95497500D01*
X84300000Y-99300000D02*
X83600000Y-98600000D01*
X83900000Y-92500000D02*
X82700000Y-91300000D01*
X84300000Y-101700000D02*
X84300000Y-99300000D01*
X83600000Y-98600000D02*
X83600000Y-97365000D01*
X84000000Y-92500000D02*
X83900000Y-92500000D01*
X84100000Y-101900000D02*
X84300000Y-101700000D01*
X82954031Y-89873107D02*
X82954031Y-87854393D01*
X83600000Y-97365000D02*
X83744520Y-97220480D01*
X82867500Y-87767862D02*
X82867500Y-87275000D01*
X82700000Y-90127138D02*
X82954031Y-89873107D01*
%TO.N,Net-(CON1-Pad1)*%
X104756755Y-69239424D02*
X105477231Y-69959900D01*
X98745300Y-97155000D02*
X99465780Y-97875480D01*
X113013478Y-70671737D02*
X113013478Y-69176900D01*
X107718971Y-101477885D02*
X109025155Y-102784069D01*
X107739950Y-70680385D02*
X109046134Y-71986569D01*
X100963398Y-98595960D02*
X101740538Y-98595962D01*
X101740538Y-98595962D02*
X102461017Y-99316441D01*
X98977665Y-89131571D02*
X100292499Y-87816737D01*
X99465780Y-97875480D02*
X100242919Y-97875481D01*
X101761517Y-67798462D02*
X102481996Y-68518941D01*
X98766279Y-66357500D02*
X99486759Y-67077980D01*
X97167812Y-89839688D02*
X97875929Y-89131571D01*
X100242919Y-97875481D02*
X100963398Y-98595960D01*
X97875929Y-89131571D02*
X98977665Y-89131571D01*
X100984377Y-67798460D02*
X101761517Y-67798462D01*
X111698646Y-71986569D02*
X113013478Y-70671737D01*
X100263898Y-67077981D02*
X100984377Y-67798460D01*
X97167812Y-91550000D02*
X97167812Y-89839688D01*
X97155000Y-97155000D02*
X98745300Y-97155000D01*
X105456252Y-100757400D02*
X106297039Y-100757401D01*
X107017521Y-101477883D02*
X107718971Y-101477885D01*
X97167812Y-91550000D02*
X97167812Y-91669686D01*
X112992499Y-101469237D02*
X112992499Y-99974400D01*
X103979615Y-69239422D02*
X104756755Y-69239424D01*
X103259136Y-68518943D02*
X103979615Y-69239422D01*
X102461017Y-99316441D02*
X103238157Y-99316443D01*
X100292499Y-87816737D02*
X100292499Y-86321900D01*
X103238157Y-99316443D02*
X103958636Y-100036922D01*
X103958636Y-100036922D02*
X104735776Y-100036924D01*
X111677667Y-102784069D02*
X112992499Y-101469237D01*
X102481996Y-68518941D02*
X103259136Y-68518943D01*
X97167812Y-91669686D02*
X97117499Y-91719999D01*
X106318018Y-69959901D02*
X107038500Y-70680383D01*
X99486759Y-67077980D02*
X100263898Y-67077981D01*
X109046134Y-71986569D02*
X111698646Y-71986569D01*
X106297039Y-100757401D02*
X107017521Y-101477883D01*
X107038500Y-70680383D02*
X107739950Y-70680385D01*
X104735776Y-100036924D02*
X105456252Y-100757400D01*
X105477231Y-69959900D02*
X106318018Y-69959901D01*
X97175979Y-66357500D02*
X98766279Y-66357500D01*
X109025155Y-102784069D02*
X111677667Y-102784069D01*
%TO.N,Net-(CON1-Pad2)*%
X100015300Y-98425000D02*
X100735780Y-99145480D01*
X108818515Y-72536088D02*
X111926265Y-72536088D01*
X103731017Y-100586441D02*
X104508157Y-100586443D01*
X100036279Y-67627500D02*
X100756759Y-68347980D01*
X107512331Y-71229904D02*
X108818515Y-72536088D01*
X108797536Y-103333588D02*
X111905286Y-103333588D01*
X100942501Y-87969999D02*
X100942501Y-86321900D01*
X102254377Y-69068460D02*
X103031517Y-69068462D01*
X98425000Y-90256071D02*
X98656429Y-90256071D01*
X106069420Y-101306920D02*
X106789902Y-102027402D01*
X103031517Y-69068462D02*
X103751996Y-69788941D01*
X100756759Y-68347980D02*
X101533898Y-68347981D01*
X104508157Y-100586443D02*
X105228634Y-101306920D01*
X105228634Y-101306920D02*
X106069420Y-101306920D01*
X98656429Y-90256071D02*
X100942501Y-87969999D01*
X101533898Y-68347981D02*
X102254377Y-69068460D01*
X113642501Y-101596373D02*
X113642501Y-99974400D01*
X98425000Y-98425000D02*
X100015300Y-98425000D01*
X106789902Y-102027402D02*
X107491352Y-102027404D01*
X104529136Y-69788943D02*
X105249613Y-70509420D01*
X100735780Y-99145480D02*
X101512919Y-99145481D01*
X106090399Y-70509420D02*
X106810881Y-71229902D01*
X111926265Y-72536088D02*
X113663480Y-70798873D01*
X113663480Y-70798873D02*
X113663480Y-69176900D01*
X103751996Y-69788941D02*
X104529136Y-69788943D01*
X111905286Y-103333588D02*
X113642501Y-101596373D01*
X106810881Y-71229902D02*
X107512331Y-71229904D01*
X101512919Y-99145481D02*
X102233398Y-99865960D01*
X98445979Y-67627500D02*
X100036279Y-67627500D01*
X107491352Y-102027404D02*
X108797536Y-103333588D01*
X103010538Y-99865962D02*
X103731017Y-100586441D01*
X105249613Y-70509420D02*
X106090399Y-70509420D01*
X102233398Y-99865960D02*
X103010538Y-99865962D01*
%TO.N,Net-(CON1-Pad3)*%
X103503398Y-101135960D02*
X104280538Y-101135962D01*
X105001016Y-101856440D02*
X105808579Y-101856441D01*
X102026759Y-69617980D02*
X102803898Y-69617981D01*
X102803898Y-69617981D02*
X103524377Y-70338460D01*
X112153884Y-73085607D02*
X114313478Y-70926013D01*
X103524377Y-70338460D02*
X104301517Y-70338462D01*
X101306279Y-68897500D02*
X102026759Y-69617980D01*
X105808579Y-101856441D02*
X106529059Y-102576921D01*
X99700000Y-89989638D02*
X101592499Y-88097139D01*
X99715979Y-68897500D02*
X101306279Y-68897500D01*
X104280538Y-101135962D02*
X105001016Y-101856440D01*
X101592499Y-88097139D02*
X101592499Y-86321900D01*
X114292499Y-101723513D02*
X114292499Y-99974400D01*
X107263733Y-102576923D02*
X108569917Y-103883107D01*
X104301517Y-70338462D02*
X105021995Y-71058940D01*
X105829558Y-71058941D02*
X106550038Y-71779421D01*
X102782919Y-100415481D02*
X103503398Y-101135960D01*
X112132905Y-103883107D02*
X114292499Y-101723513D01*
X108569917Y-103883107D02*
X112132905Y-103883107D01*
X106550038Y-71779421D02*
X107284712Y-71779423D01*
X107284712Y-71779423D02*
X108590896Y-73085607D01*
X101285300Y-99695000D02*
X102005780Y-100415480D01*
X102005780Y-100415480D02*
X102782919Y-100415481D01*
X106529059Y-102576921D02*
X107263733Y-102576923D01*
X99700000Y-91500000D02*
X99700000Y-89989638D01*
X99695000Y-99695000D02*
X101285300Y-99695000D01*
X114313478Y-70926013D02*
X114313478Y-69176900D01*
X108590896Y-73085607D02*
X112153884Y-73085607D01*
X105021995Y-71058940D02*
X105829558Y-71058941D01*
%TO.N,Net-(CON1-Pad4)*%
X114963480Y-71053149D02*
X114963480Y-69176900D01*
X100965000Y-100965000D02*
X102555300Y-100965000D01*
X104073898Y-70887981D02*
X104794377Y-71608460D01*
X107036114Y-103126442D02*
X108342298Y-104432626D01*
X104794377Y-71608460D02*
X105601939Y-71608460D01*
X108342298Y-104432626D02*
X112360524Y-104432626D01*
X101110500Y-90170000D02*
X101110500Y-89707000D01*
X100985979Y-70167500D02*
X102576279Y-70167500D01*
X112360524Y-104432626D02*
X114942501Y-101850649D01*
X101110500Y-89707000D02*
X102242501Y-88574999D01*
X103275780Y-101685480D02*
X104052919Y-101685481D01*
X112381503Y-73635126D02*
X114963480Y-71053149D01*
X102242501Y-88574999D02*
X102242501Y-86321900D01*
X106322419Y-72328940D02*
X107057093Y-72328942D01*
X102555300Y-100965000D02*
X103275780Y-101685480D01*
X107057093Y-72328942D02*
X108363277Y-73635126D01*
X114942501Y-101850649D02*
X114942501Y-99974400D01*
X104052919Y-101685481D02*
X104773398Y-102405960D01*
X106301440Y-103126440D02*
X107036114Y-103126442D01*
X104773398Y-102405960D02*
X105580960Y-102405960D01*
X105580960Y-102405960D02*
X106301440Y-103126440D01*
X103296759Y-70887980D02*
X104073898Y-70887981D01*
X105601939Y-71608460D02*
X106322419Y-72328940D01*
X108363277Y-73635126D02*
X112381503Y-73635126D01*
X102576279Y-70167500D02*
X103296759Y-70887980D01*
%TO.N,Net-(CON1-Pad5)*%
X103825300Y-102235000D02*
X104545780Y-102955480D01*
X102892499Y-89036251D02*
X102235000Y-89693750D01*
X105343898Y-72157981D02*
X106064377Y-72878460D01*
X115613478Y-71180289D02*
X115613478Y-69176900D01*
X112609121Y-74184646D02*
X115613478Y-71180289D01*
X106808495Y-103675961D02*
X108114680Y-104982146D01*
X108135659Y-74184646D02*
X112609121Y-74184646D01*
X115592499Y-101977789D02*
X115592499Y-99974400D01*
X102235000Y-89693750D02*
X102235000Y-91757500D01*
X102892499Y-86321900D02*
X102892499Y-89036251D01*
X102235000Y-102235000D02*
X103825300Y-102235000D01*
X106043398Y-103675960D02*
X106808495Y-103675961D01*
X102255979Y-71437500D02*
X103846279Y-71437500D01*
X108114680Y-104982146D02*
X112588142Y-104982146D01*
X106829474Y-72878461D02*
X108135659Y-74184646D01*
X104545780Y-102955480D02*
X105322919Y-102955481D01*
X104566759Y-72157980D02*
X105343898Y-72157981D01*
X103846279Y-71437500D02*
X104566759Y-72157980D01*
X112588142Y-104982146D02*
X115592499Y-101977789D01*
X105322919Y-102955481D02*
X106043398Y-103675960D01*
X106064377Y-72878460D02*
X106829474Y-72878461D01*
%TO.N,Net-(CON1-Pad6)*%
X107887060Y-105531664D02*
X106580876Y-104225480D01*
X105815780Y-104225480D02*
X105095300Y-103505000D01*
X116263480Y-69176900D02*
X116263480Y-71307425D01*
X103504304Y-90172088D02*
X103542501Y-90133891D01*
X105116279Y-72707500D02*
X103525979Y-72707500D01*
X112815762Y-105531664D02*
X107887060Y-105531664D01*
X116263480Y-71307425D02*
X112836741Y-74734164D01*
X107908039Y-74734164D02*
X106601855Y-73427980D01*
X105836759Y-73427980D02*
X105116279Y-72707500D01*
X116242501Y-102104925D02*
X112815762Y-105531664D01*
X103542501Y-90133891D02*
X103542501Y-86321900D01*
X105095300Y-103505000D02*
X103505000Y-103505000D01*
X116242501Y-99974400D02*
X116242501Y-102104925D01*
X106580876Y-104225480D02*
X105815780Y-104225480D01*
X106601855Y-73427980D02*
X105836759Y-73427980D01*
X112836741Y-74734164D02*
X107908039Y-74734164D01*
%TO.N,Net-(CON1-Pad7)*%
X116892499Y-102232065D02*
X113043381Y-106081183D01*
X107659441Y-106081183D02*
X106353258Y-104775000D01*
X116913478Y-69176900D02*
X116913478Y-71434565D01*
X104775000Y-89677138D02*
X104192499Y-89094637D01*
X104192499Y-89094637D02*
X104192499Y-86321900D01*
X116913478Y-71434565D02*
X113064360Y-75283683D01*
X107680420Y-75283683D02*
X106374237Y-73977500D01*
X113043381Y-106081183D02*
X107659441Y-106081183D01*
X113064360Y-75283683D02*
X107680420Y-75283683D01*
X106374237Y-73977500D02*
X104795979Y-73977500D01*
X106353258Y-104775000D02*
X104775000Y-104775000D01*
X104775000Y-91757500D02*
X104775000Y-89677138D01*
X116892499Y-99974400D02*
X116892499Y-102232065D01*
%TO.N,Net-(CON1-Pad8)*%
X117563479Y-71561702D02*
X113291979Y-75833202D01*
X106630702Y-106630702D02*
X106045000Y-106045000D01*
X117563479Y-69176900D02*
X117563479Y-71561702D01*
X104842500Y-88967500D02*
X104842500Y-86321900D01*
X117542500Y-99974400D02*
X117542500Y-102359202D01*
X117542500Y-102359202D02*
X113271000Y-106630702D01*
X113291979Y-75833202D02*
X106651681Y-75833202D01*
X113271000Y-106630702D02*
X106630702Y-106630702D01*
X106651681Y-75833202D02*
X106065979Y-75247500D01*
X105899500Y-90024500D02*
X104842500Y-88967500D01*
X105899500Y-90170000D02*
X105899500Y-90024500D01*
%TO.N,Net-(CON1-Pad9)*%
X107315000Y-87309700D02*
X108035479Y-86589221D01*
X101751928Y-84222980D02*
X99642501Y-82113553D01*
X107335979Y-62865000D02*
X109323159Y-62865000D01*
X108035479Y-86589221D02*
X108035480Y-85213106D01*
X108667180Y-94297500D02*
X109937180Y-93027500D01*
X109323159Y-62865000D02*
X109958159Y-62230000D01*
X112077500Y-93027500D02*
X112342501Y-93292501D01*
X112098479Y-62230000D02*
X112363480Y-62495001D01*
X107315000Y-94297500D02*
X108667180Y-94297500D01*
X112342501Y-93292501D02*
X112342501Y-94335600D01*
X108035480Y-85213106D02*
X107045354Y-84222980D01*
X109958159Y-62230000D02*
X112098479Y-62230000D01*
X107045354Y-84222980D02*
X101751928Y-84222980D01*
X107315000Y-87947500D02*
X107315000Y-87309700D01*
X112363480Y-62495001D02*
X112363480Y-63538100D01*
X99642501Y-82113553D02*
X99642501Y-80683100D01*
X109937180Y-93027500D02*
X112077500Y-93027500D01*
%TO.N,Net-(CON1-Pad10)*%
X101979546Y-83673460D02*
X100292502Y-81986416D01*
X113013481Y-62367864D02*
X113013481Y-63538100D01*
X107272972Y-83673460D02*
X101979546Y-83673460D01*
X108584999Y-84985487D02*
X107272972Y-83673460D01*
X109645059Y-61595000D02*
X109730540Y-61680481D01*
X109709561Y-92477981D02*
X112305119Y-92477981D01*
X100292502Y-81986416D02*
X100292502Y-80683100D01*
X108579788Y-92794608D02*
X109392934Y-92794608D01*
X109392934Y-92794608D02*
X109709561Y-92477981D01*
X112992502Y-93165364D02*
X112992502Y-94335600D01*
X108605979Y-61595000D02*
X109645059Y-61595000D01*
X108583608Y-89216108D02*
X108584999Y-89214717D01*
X108584999Y-89214717D02*
X108584999Y-84985487D01*
X109730540Y-61680481D02*
X112326098Y-61680481D01*
X112326098Y-61680481D02*
X113013481Y-62367864D01*
X112305119Y-92477981D02*
X112992502Y-93165364D01*
%TO.N,Net-(CON1-Pad11)*%
X112857337Y-91928461D02*
X113642501Y-92713625D01*
X113642501Y-92713625D02*
X113642501Y-94335600D01*
X113663480Y-61916125D02*
X113663480Y-63538100D01*
X110440579Y-91928461D02*
X112857337Y-91928461D01*
X109305480Y-86762980D02*
X109305480Y-84928830D01*
X112878316Y-61130961D02*
X113663480Y-61916125D01*
X107500590Y-83123940D02*
X102207164Y-83123940D01*
X102207164Y-83123940D02*
X100942501Y-81859277D01*
X110681940Y-61130961D02*
X112878316Y-61130961D01*
X109865599Y-91353481D02*
X110440579Y-91928461D01*
X109855000Y-87312500D02*
X109305480Y-86762980D01*
X109305480Y-84928830D02*
X107500590Y-83123940D01*
X109875979Y-60325000D02*
X110681940Y-61130961D01*
X100942501Y-81859277D02*
X100942501Y-80683100D01*
%TO.N,Net-(CON1-Pad12)*%
X114292502Y-92586488D02*
X114292502Y-94335600D01*
X111125000Y-90805000D02*
X111698941Y-91378941D01*
X113084956Y-91378942D02*
X114292502Y-92586488D01*
X110098288Y-84944500D02*
X107728208Y-82574420D01*
X111125000Y-89852500D02*
X111125000Y-90805000D01*
X107728208Y-82574420D02*
X102434782Y-82574420D01*
X102434782Y-82574420D02*
X101592502Y-81732140D01*
X113105935Y-60581442D02*
X114313481Y-61788988D01*
X111698941Y-91378941D02*
X113084956Y-91378942D01*
X111145979Y-59055000D02*
X111145979Y-60007500D01*
X111719920Y-60581441D02*
X113105935Y-60581442D01*
X111145979Y-60007500D02*
X111719920Y-60581441D01*
X111125000Y-84944500D02*
X110098288Y-84944500D01*
X114313481Y-61788988D02*
X114313481Y-63538100D01*
X101592502Y-81732140D02*
X101592502Y-80683100D01*
%TO.N,Net-(CON1-Pad13)*%
X112415979Y-58102500D02*
X112415979Y-57785000D01*
X112415979Y-59690000D02*
X112415979Y-58102500D01*
X111590789Y-83819989D02*
X109750915Y-83819989D01*
X112757901Y-60031922D02*
X112415979Y-59690000D01*
X114963480Y-63538100D02*
X114963480Y-61661849D01*
X109750915Y-83819989D02*
X107955826Y-82024900D01*
X113312574Y-90829422D02*
X112736922Y-90829422D01*
X114963480Y-61661849D02*
X113333553Y-60031922D01*
X112395000Y-88900000D02*
X112395000Y-88582500D01*
X107955826Y-82024900D02*
X102662400Y-82024900D01*
X102662400Y-82024900D02*
X102242501Y-81605001D01*
X102242501Y-81605001D02*
X102242501Y-80683100D01*
X112736922Y-90829422D02*
X112395000Y-90487500D01*
X114942501Y-92459349D02*
X113312574Y-90829422D01*
X112395000Y-84624200D02*
X111590789Y-83819989D01*
X114942501Y-94335600D02*
X114942501Y-92459349D01*
X113333553Y-60031922D02*
X112757901Y-60031922D01*
X112395000Y-90487500D02*
X112395000Y-88900000D01*
X112395000Y-86188000D02*
X112395000Y-84624200D01*
%TO.N,Net-(CON1-Pad14)*%
X113668022Y-89762577D02*
X113665000Y-89765599D01*
X113665000Y-90345362D02*
X115592499Y-92272861D01*
X115613478Y-61475361D02*
X115613478Y-63538100D01*
X113685979Y-59547862D02*
X115613478Y-61475361D01*
X113665000Y-89765599D02*
X113665000Y-90345362D01*
X107485961Y-78275961D02*
X103931942Y-78275961D01*
X115592499Y-92272861D02*
X115592499Y-94335600D01*
X113520661Y-81453161D02*
X110663161Y-81453161D01*
X113665000Y-81597500D02*
X113520661Y-81453161D01*
X113685979Y-58968099D02*
X113685979Y-59547862D01*
X103931942Y-78275961D02*
X102892499Y-79315404D01*
X102892499Y-79315404D02*
X102892499Y-80683100D01*
X113689001Y-58965077D02*
X113685979Y-58968099D01*
X110663161Y-81453161D02*
X107485961Y-78275961D01*
%TO.N,Net-(CON1-Pad15)*%
X114955979Y-57785000D02*
X114968051Y-57797072D01*
X114955979Y-60007500D02*
X116263480Y-61315001D01*
X112204426Y-82002681D02*
X110402319Y-82002681D01*
X114968051Y-57797072D02*
X114968051Y-59995428D01*
X114968051Y-59995428D02*
X114955979Y-60007500D01*
X104159560Y-78825480D02*
X103542501Y-79442539D01*
X113614643Y-83412898D02*
X112204426Y-82002681D01*
X114935000Y-90805000D02*
X116242501Y-92112501D01*
X107225119Y-78825481D02*
X104159560Y-78825480D01*
X110402319Y-82002681D02*
X107225119Y-78825481D01*
X114947072Y-88594572D02*
X114947072Y-90792928D01*
X103542501Y-79442539D02*
X103542501Y-80683100D01*
X114935000Y-88582500D02*
X114947072Y-88594572D01*
X115080500Y-83412898D02*
X113614643Y-83412898D01*
X116263480Y-61315001D02*
X116263480Y-63538100D01*
X114947072Y-90792928D02*
X114935000Y-90805000D01*
X116242501Y-92112501D02*
X116242501Y-94335600D01*
%TO.N,Net-(CON1-Pad16)*%
X106997500Y-79375000D02*
X104387178Y-79375000D01*
X104192499Y-79569679D02*
X104192499Y-80683100D01*
X116205000Y-84772500D02*
X114197107Y-84772500D01*
X114197107Y-84772500D02*
X112060088Y-82635481D01*
X116206392Y-91299254D02*
X116892499Y-91985361D01*
X116206392Y-89852500D02*
X116206392Y-91299254D01*
X116227371Y-59055000D02*
X116227371Y-60501754D01*
X110257980Y-82635480D02*
X106997500Y-79375000D01*
X116892499Y-91985361D02*
X116892499Y-94335600D01*
X116227371Y-60501754D02*
X116913478Y-61187861D01*
X116913478Y-61187861D02*
X116913478Y-63538100D01*
X112060088Y-82635481D02*
X110257980Y-82635480D01*
X104387178Y-79375000D02*
X104192499Y-79569679D01*
%TO.N,/NEEDLE_*%
X90805000Y-86505000D02*
X90805000Y-80790500D01*
X92414999Y-88114999D02*
X90805000Y-86505000D01*
X90805000Y-66040000D02*
X91795000Y-66040000D01*
X90805000Y-80790500D02*
X91268000Y-80327500D01*
X90488892Y-66356108D02*
X90805000Y-66040000D01*
X92414999Y-89268300D02*
X92414999Y-88114999D01*
X90488892Y-66993892D02*
X90488892Y-66356108D01*
%TO.N,/NEEDLE*%
X94932500Y-68262500D02*
X94932500Y-67310000D01*
X96595000Y-69215000D02*
X96912500Y-69532500D01*
X93640000Y-66040000D02*
X92990000Y-66040000D01*
X94900000Y-67400000D02*
X94900000Y-67300000D01*
X95885000Y-69215000D02*
X96595000Y-69215000D01*
X94900000Y-67300000D02*
X93640000Y-66040000D01*
X95885000Y-69215000D02*
X94932500Y-68262500D01*
%TO.N,/SIG_OUT*%
X118842500Y-70201500D02*
X118842500Y-69176900D01*
X118999000Y-70358000D02*
X118842500Y-70201500D01*
X118999000Y-70395500D02*
X118999000Y-70358000D01*
%TO.N,Net-(J8-Pad2)*%
X112893749Y-77130001D02*
X118433250Y-71590500D01*
X110845000Y-76835000D02*
X110807500Y-76872500D01*
X112445800Y-77130001D02*
X112893749Y-77130001D01*
X112445800Y-77130001D02*
X111420001Y-77130001D01*
X104775000Y-76602980D02*
X104102500Y-75930480D01*
X111125000Y-76835000D02*
X110845000Y-76835000D01*
X118433250Y-71590500D02*
X118999000Y-71590500D01*
X104102500Y-75930480D02*
X104102500Y-75882500D01*
X111420001Y-77130001D02*
X111125000Y-76835000D01*
X110537980Y-76602980D02*
X104775000Y-76602980D01*
X110807500Y-76872500D02*
X110537980Y-76602980D01*
%TD*%
M02*
